<svg width="666" height="557" viewBox="0 0 666 557" fill="none" xmlns="http://www.w3.org/2000/svg">
<path fill-rule="evenodd" clip-rule="evenodd" d="M314.788 25.8437C383.52 36.8276 445.052 59.9258 500.838 101.55C569.859 153.05 668.342 201.528 665.599 287.601C662.861 373.517 558.963 411.736 489.348 462.161C435.513 501.154 381.216 539.256 314.788 541.704C245.796 544.247 179.988 519.619 126.871 475.518C67.6929 426.385 20.5126 363.61 8.73566 287.601C-5.13889 198.053 -10.9026 89.6725 57.9619 30.7749C125.608 -27.0805 226.891 11.7969 314.788 25.8437Z" fill="#A2CCEE"/>
<path fill-rule="evenodd" clip-rule="evenodd" d="M377.608 79.6704C458.756 68.431 550.478 -2.95047 612.259 50.8491C673.581 104.249 611.402 204.226 613.974 285.499C616.717 372.209 692.173 477.557 627.591 535.482C562.364 593.984 463.987 512.186 377.608 497.498C315.884 487.002 249.641 501.345 200.286 462.822C145.426 420.002 106.046 355.092 106 285.499C105.954 215.873 144.559 149.994 200.051 107.942C249.706 70.3123 315.895 88.218 377.608 79.6704Z" fill="#FF4235"/>
</svg>
