<svg width="128" height="128" viewBox="0 0 128 128" fill="none" xmlns="http://www.w3.org/2000/svg">
<g clip-path="url(#clip0_2965_10989)">
<path d="M117.168 68.3066C117.208 67.9278 117.334 67.6317 117.543 67.4184C117.753 67.2051 118.053 67.0654 118.443 66.9993L126.323 65.5475C126.663 65.4956 126.95 65.5167 127.186 65.6109C127.42 65.7147 127.595 65.8759 127.709 66.0946C127.831 66.3239 127.877 66.5843 127.846 66.8758C127.81 67.206 127.698 67.474 127.509 67.6797C127.32 67.8853 126.995 68.0224 126.536 68.0909L119.728 69.1716L119.814 68.3702L126.228 73.143C126.538 73.3728 126.754 73.6024 126.876 73.8318C126.998 74.0709 127.041 74.3605 127.004 74.7005C126.965 75.0599 126.848 75.3273 126.653 75.5028C126.465 75.689 126.239 75.7826 125.974 75.7835C125.708 75.7845 125.444 75.6824 125.181 75.4772L117.913 69.8755C117.613 69.6467 117.402 69.4128 117.281 69.1737C117.169 68.9356 117.131 68.6466 117.168 68.3066Z" fill="#39073F"/>
<path d="M114.681 80.6069C115.005 79.6747 115.458 78.9217 116.039 78.3481C116.63 77.7776 117.316 77.4107 118.097 77.2473C118.884 77.0964 119.738 77.1811 120.661 77.5015C121.501 77.7931 122.224 78.1836 122.83 78.6731C123.442 79.1751 123.921 79.7449 124.269 80.3826C124.613 81.0295 124.807 81.7225 124.85 82.4615C124.899 83.213 124.786 83.9856 124.511 84.7793C124.184 85.7208 123.725 86.4767 123.134 87.0472C122.552 87.6209 121.868 87.9832 121.081 88.1341C120.304 88.2883 119.458 88.2067 118.545 87.8895C117.695 87.5948 116.963 87.201 116.348 86.7083C115.743 86.2188 115.268 85.6506 114.923 85.0036C114.579 84.3567 114.382 83.6575 114.333 82.906C114.29 82.167 114.406 81.4007 114.681 80.6069ZM116.804 81.3747C116.608 81.9377 116.591 82.4643 116.752 82.9545C116.912 83.4447 117.219 83.8873 117.671 84.2822C118.133 84.6803 118.71 84.9995 119.402 85.2398C120.178 85.509 120.814 85.523 121.311 85.282C121.815 85.0534 122.175 84.6253 122.393 83.9977C122.582 83.4531 122.598 82.9311 122.44 82.4317C122.28 81.9415 121.973 81.499 121.521 81.104C121.065 80.7184 120.486 80.4038 119.785 80.1603C119.019 79.8943 118.384 79.8756 117.881 80.1042C117.377 80.3328 117.018 80.7563 116.804 81.3747Z" fill="#39073F"/>
<path d="M111.304 88.7698C111.529 88.3695 111.809 88.1511 112.143 88.1148C112.472 88.087 112.839 88.2316 113.244 88.5487L119.343 93.3714C119.701 93.6512 119.911 93.9545 119.974 94.2812C120.046 94.6128 119.971 94.9744 119.751 95.3662C119.531 95.758 119.256 95.9678 118.927 95.9956C118.593 96.0319 118.226 95.8873 117.826 95.5618L111.74 90.7462C111.373 90.4616 111.152 90.1578 111.075 89.8348C111.008 89.5166 111.084 89.1616 111.304 88.7698Z" fill="#39073F"/>
<path d="M108.348 94.0172C108.616 93.681 108.918 93.5217 109.253 93.5393C109.589 93.5569 109.931 93.7546 110.28 94.1323L115.434 99.775C115.743 100.109 115.9 100.445 115.903 100.786C115.915 101.132 115.78 101.481 115.5 101.832L113.583 104.24C112.846 105.164 112.077 105.707 111.274 105.867C110.474 106.041 109.714 105.842 108.996 105.27C108.362 104.764 107.951 104.213 107.766 103.615C107.58 103.017 107.583 102.402 107.776 101.768C107.968 101.134 108.311 100.508 108.804 99.8892L109.01 100.054L108.672 100.478C108.356 100.875 107.993 101.111 107.584 101.185C107.176 101.259 106.726 101.219 106.236 101.066L105.176 100.727C104.809 100.623 104.539 100.476 104.365 100.287C104.19 100.098 104.117 99.8774 104.144 99.624C104.171 99.3707 104.303 99.095 104.54 98.797C104.765 98.5143 105.021 98.3428 105.306 98.2827C105.585 98.2303 105.927 98.2716 106.331 98.4065L108.452 99.0843C108.727 99.1783 108.958 99.1939 109.146 99.1309C109.335 99.0817 109.518 98.9463 109.694 98.7247L110.242 98.037L108.423 96.0632C108.114 95.7296 107.954 95.3897 107.943 95.0434C107.939 94.7031 108.074 94.3611 108.348 94.0172ZM111.55 99.4533L110.335 100.978C110.006 101.39 109.845 101.774 109.85 102.128C109.857 102.495 110.04 102.822 110.399 103.109C110.697 103.346 110.998 103.423 111.301 103.34C111.599 103.265 111.915 103.017 112.25 102.597L113.263 101.324L111.55 99.4533Z" fill="#39073F"/>
<path d="M97.0125 106.295C97.3988 106.029 97.7565 105.937 98.0856 106.019C98.4122 106.114 98.6776 106.37 98.8818 106.787L102.265 113.87C102.447 114.255 102.496 114.601 102.411 114.909C102.326 115.216 102.111 115.489 101.765 115.727C101.394 115.982 101.049 116.066 100.728 115.979C100.407 115.891 100.145 115.633 99.9437 115.202L96.9928 109.031L94.2168 110.943C93.911 111.153 93.6293 111.252 93.3716 111.24C93.106 111.233 92.89 111.109 92.7237 110.868C92.491 110.53 92.4059 110.191 92.4686 109.851C92.5287 109.525 92.7318 109.243 93.0778 109.005L97.0125 106.295Z" fill="#39073F"/>
<path d="M89.1112 111.458C89.5577 111.26 89.9352 111.231 90.2436 111.372C90.556 111.522 90.7737 111.832 90.8965 112.301L92.8739 119.681C92.9858 120.102 92.9693 120.462 92.8243 120.761C92.6793 121.061 92.4104 121.298 92.0175 121.472L87.5437 123.458C87.2222 123.601 86.9469 123.643 86.7178 123.584C86.4887 123.526 86.3186 123.371 86.2076 123.121C86.053 122.773 86.0328 122.451 86.147 122.154C86.2563 121.87 86.485 121.651 86.8333 121.497L90.3159 119.951L89.8003 118.031L86.7866 119.369C86.4651 119.512 86.1898 119.554 85.9607 119.495C85.7315 119.436 85.5615 119.282 85.4505 119.032C85.2959 118.684 85.2757 118.361 85.3899 118.065C85.5081 117.777 85.7368 117.558 86.0761 117.407L89.264 115.992L88.7099 113.913L85.4014 115.382C85.08 115.525 84.8047 115.567 84.5755 115.508C84.3464 115.449 84.1763 115.295 84.0653 115.045C83.9107 114.697 83.8905 114.374 84.0047 114.078C84.114 113.794 84.3383 113.577 84.6776 113.426L89.1112 111.458Z" fill="#39073F"/>
<path d="M77.1533 115.743C77.5152 115.66 77.8969 115.598 78.2983 115.557C78.6902 115.517 79.0849 115.512 79.4825 115.542C79.8801 115.571 80.2582 115.625 80.6168 115.704C80.9044 115.778 81.1245 115.909 81.2771 116.094C81.4224 116.292 81.5068 116.508 81.5304 116.743C81.5445 116.98 81.5044 117.2 81.4102 117.402C81.3065 117.606 81.1516 117.761 80.9456 117.869C80.73 117.978 80.4641 117.998 80.1479 117.93C79.6715 117.819 79.1901 117.773 78.7038 117.794C78.208 117.817 77.7696 117.872 77.3886 117.959C76.8456 118.083 76.4508 118.263 76.2042 118.5C75.9503 118.748 75.8537 119.006 75.9146 119.272C75.9646 119.492 76.0964 119.652 76.31 119.753C76.5162 119.867 76.8196 119.923 77.2202 119.921L78.9546 119.946C79.7155 119.943 80.3624 120.121 80.8954 120.481C81.4189 120.842 81.7578 121.361 81.9122 122.037C82.0361 122.58 82.0305 123.083 81.8954 123.544C81.7624 124.016 81.5286 124.44 81.1937 124.817C80.8611 125.203 80.4539 125.527 79.9721 125.787C79.4926 126.057 78.9718 126.256 78.4098 126.384C77.9526 126.489 77.4453 126.549 76.888 126.566C76.3307 126.583 75.7787 126.514 75.232 126.358C74.9773 126.296 74.7795 126.176 74.6386 125.997C74.4882 125.821 74.3975 125.622 74.3665 125.398C74.3378 125.184 74.3763 124.98 74.4822 124.785C74.5786 124.593 74.7441 124.44 74.9787 124.326C75.206 124.224 75.5015 124.202 75.8654 124.259C76.1911 124.325 76.5378 124.351 76.9054 124.338C77.2752 124.333 77.6173 124.295 77.9316 124.224C78.2841 124.143 78.5791 124.031 78.8167 123.886C79.047 123.754 79.2125 123.601 79.3132 123.427C79.4139 123.254 79.4436 123.077 79.4023 122.896C79.3523 122.677 79.2301 122.514 79.0355 122.408C78.841 122.302 78.5625 122.246 78.2 122.238L76.4689 122.228C75.6465 122.225 74.9677 122.039 74.4326 121.67C73.8996 121.311 73.5591 120.807 73.4113 120.16C73.2808 119.588 73.2905 119.06 73.4403 118.575C73.5828 118.101 73.8357 117.673 74.1991 117.289C74.5552 116.917 74.9884 116.598 75.4987 116.331C76.0112 116.074 76.5627 115.878 77.1533 115.743Z" fill="#39073F"/>
<path d="M60.9958 117.225C61.3752 117.261 61.6729 117.382 61.8891 117.588C62.1053 117.795 62.2492 118.093 62.3207 118.483L63.8821 126.341C63.9387 126.68 63.9216 126.968 63.8307 127.205C63.7302 127.441 63.5714 127.617 63.3544 127.734C63.1267 127.86 62.867 127.91 62.5752 127.882C62.2444 127.851 61.9749 127.743 61.7666 127.557C61.5584 127.37 61.4168 127.048 61.3419 126.59L60.1665 119.797L60.9691 119.872L56.286 126.352C56.0605 126.665 55.8339 126.884 55.6063 127.01C55.3689 127.135 55.08 127.182 54.7395 127.15C54.3796 127.116 54.1105 127.003 53.9323 126.809C53.7435 126.625 53.6468 126.4 53.6422 126.135C53.6376 125.869 53.736 125.604 53.9375 125.338L59.4374 117.992C59.662 117.689 59.893 117.475 60.1304 117.35C60.3668 117.235 60.6553 117.193 60.9958 117.225Z" fill="#39073F"/>
<path d="M52.2674 115.922C52.7108 116.041 52.9913 116.258 53.109 116.573C53.2172 116.886 53.1676 117.277 52.9602 117.747L49.7914 124.847C49.6087 125.263 49.3667 125.542 49.0656 125.684C48.762 125.835 48.3931 125.852 47.9591 125.735C47.5251 125.619 47.254 125.404 47.1458 125.092C47.0281 124.777 47.0777 124.386 47.2945 123.918L50.4595 116.832C50.6448 116.406 50.8846 116.117 51.1788 115.963C51.4705 115.819 51.8333 115.805 52.2674 115.922Z" fill="#39073F"/>
<path d="M46.3022 114.489C46.7257 114.69 46.9867 114.96 47.0851 115.299C47.1747 115.634 47.0835 115.996 46.8115 116.386L42.4976 122.692C42.2512 123.051 41.9671 123.273 41.6454 123.358C41.3237 123.443 40.9687 123.393 40.5805 123.208L38.4498 122.195C36.8793 121.448 35.8427 120.511 35.3398 119.385C34.8281 118.254 34.8765 117.049 35.485 115.77C35.8417 115.02 36.288 114.377 36.8237 113.842C37.3553 113.316 37.9638 112.924 38.6492 112.666C39.3304 112.417 40.0736 112.321 40.8789 112.38C41.6711 112.443 42.5084 112.684 43.3907 113.104L46.3022 114.489ZM44.0011 115.812L42.4262 115.063C41.9498 114.836 41.4995 114.714 41.0752 114.696C40.6379 114.683 40.233 114.761 39.8605 114.93C39.488 115.099 39.1521 115.35 38.8527 115.684C38.5404 116.022 38.2667 116.438 38.0317 116.932C37.7001 117.629 37.6447 118.258 37.8655 118.817C38.0863 119.376 38.5937 119.845 39.3878 120.223L40.5788 120.789L44.0011 115.812Z" fill="#39073F"/>
<path d="M35.0482 108.64C35.4347 108.938 35.6392 109.257 35.6617 109.595C35.6781 109.941 35.5091 110.28 35.1545 110.611L29.5997 115.857C29.2827 116.155 28.958 116.312 28.6255 116.326C28.2931 116.341 27.9568 116.217 27.6167 115.954L23.7438 112.961C23.4655 112.746 23.2978 112.523 23.2405 112.294C23.1833 112.064 23.2383 111.841 23.4056 111.625C23.6386 111.323 23.9127 111.152 24.2279 111.112C24.5294 111.073 24.8309 111.171 25.1324 111.404L28.1472 113.734L29.5917 112.368L26.9827 110.352C26.7044 110.137 26.5366 109.914 26.4794 109.685C26.4221 109.455 26.4772 109.232 26.6445 109.016C26.8775 108.715 27.1516 108.544 27.4668 108.503C27.776 108.471 28.0775 108.568 28.3713 108.795L31.131 110.928L32.6972 109.453L29.8332 107.239C29.5549 107.024 29.3871 106.802 29.3298 106.572C29.2726 106.343 29.3276 106.12 29.4949 105.903C29.7279 105.602 30.002 105.431 30.3173 105.39C30.6188 105.352 30.9164 105.446 31.2101 105.673L35.0482 108.64ZM24.0362 114.428C24.2769 114.404 24.4746 114.452 24.6292 114.571C24.7701 114.692 24.8656 114.84 24.9159 115.015C24.9584 115.184 24.9413 115.349 24.8647 115.512C24.7803 115.67 24.6243 115.784 24.3966 115.855L22.763 116.314C22.4942 116.391 22.2637 116.385 22.0714 116.299C21.8655 116.214 21.71 116.087 21.605 115.92C21.4922 115.746 21.4372 115.561 21.4401 115.366C21.4369 115.178 21.5058 115.009 21.6468 114.859C21.774 114.71 21.9755 114.625 22.2514 114.604L24.0362 114.428Z" fill="#39073F"/>
<path d="M24.7475 99.2148C25.3818 99.9707 25.796 100.745 25.9901 101.539C26.1768 102.339 26.14 103.116 25.8799 103.87C25.606 104.623 25.0948 105.313 24.3464 105.941C23.6654 106.513 22.9594 106.933 22.2285 107.202C21.4839 107.47 20.7487 107.589 20.0231 107.56C19.2911 107.524 18.5969 107.335 17.9402 106.993C17.2698 106.65 16.6645 106.157 16.1244 105.513C15.4838 104.75 15.0702 103.968 14.8836 103.168C14.6895 102.375 14.7294 101.601 15.0033 100.849C15.2697 100.102 15.7733 99.418 16.5143 98.7963C17.2028 98.2185 17.9163 97.792 18.6546 97.5168C19.3855 97.2478 20.1169 97.1315 20.8488 97.1678C21.5808 97.2041 22.2819 97.3937 22.9524 97.7366C23.609 98.0784 24.2074 98.5711 24.7475 99.2148ZM22.9998 100.643C22.6167 100.187 22.1735 99.9016 21.6703 99.7882C21.167 99.6748 20.6299 99.7111 20.0588 99.8969C19.4803 100.089 18.9104 100.421 18.349 100.892C17.7204 101.419 17.382 101.958 17.3338 102.509C17.2719 103.058 17.4544 103.587 17.8815 104.096C18.252 104.538 18.6921 104.819 19.2016 104.94C19.7049 105.053 20.2421 105.017 20.8131 104.831C21.3779 104.638 21.9446 104.303 22.5134 103.825C23.1346 103.304 23.4762 102.769 23.5381 102.219C23.6 101.67 23.4206 101.144 22.9998 100.643Z" fill="#39073F"/>
<path d="M18.2763 90.0129C18.4498 90.3412 18.6085 90.6938 18.7526 91.0707C18.892 91.4391 18.9989 91.8191 19.0733 92.2107C19.1478 92.6024 19.1935 92.9816 19.2105 93.3483C19.2129 93.6454 19.1441 93.8917 19.0043 94.0872C18.8513 94.2786 18.6643 94.4161 18.4433 94.4998C18.2178 94.5748 17.9953 94.593 17.7759 94.5542C17.5519 94.5068 17.3615 94.3975 17.2047 94.2263C17.0433 94.0463 16.9545 93.7949 16.9385 93.4718C16.9231 92.9827 16.8424 92.5059 16.6964 92.0416C16.5458 91.5686 16.3792 91.1594 16.1966 90.8139C15.9363 90.3215 15.66 89.9869 15.3675 89.8099C15.0619 89.6289 14.7881 89.6023 14.5463 89.7302C14.3476 89.8352 14.2269 90.004 14.1841 90.2366C14.128 90.4651 14.1525 90.7727 14.2574 91.1593L14.6822 92.8411C14.8824 93.5751 14.8779 94.2461 14.6687 94.854C14.455 95.4532 14.0415 95.9149 13.4282 96.239C12.9359 96.4993 12.4492 96.6239 11.9682 96.613C11.4786 96.6065 11.0083 96.4904 10.5574 96.2646C10.0979 96.0434 9.68009 95.7338 9.30397 95.3359C8.91922 94.9425 8.59215 94.491 8.32276 93.9814C8.10361 93.5668 7.91369 93.0925 7.75302 92.5586C7.59235 92.0246 7.51651 91.4735 7.52551 90.9051C7.51958 90.643 7.58448 90.4208 7.72021 90.2386C7.85138 90.0477 8.02086 89.9084 8.22866 89.8206C8.42782 89.7375 8.63506 89.7218 8.85039 89.7738C9.06115 89.8171 9.2518 89.9373 9.42233 90.1345C9.57967 90.3276 9.67777 90.6073 9.71665 90.9736C9.73726 91.3052 9.8018 91.6469 9.91028 91.9984C10.0101 92.3545 10.1354 92.6751 10.286 92.9602C10.455 93.2797 10.6399 93.5356 10.841 93.7277C11.0288 93.9158 11.2194 94.036 11.4129 94.0885C11.6064 94.1409 11.7852 94.1238 11.9493 94.037C12.148 93.932 12.2733 93.7718 12.3252 93.5565C12.3772 93.3412 12.3598 93.0575 12.2732 92.7054L11.8354 91.0305C11.6251 90.2355 11.6289 89.5318 11.8467 88.9193C12.0558 88.3115 12.4541 87.8523 13.0414 87.5419C13.5597 87.2679 14.0725 87.1405 14.5799 87.1596C15.0741 87.1747 15.5535 87.308 16.0181 87.5598C16.4695 87.8074 16.8901 88.1431 17.2799 88.567C17.6611 88.9954 17.9932 89.4774 18.2763 90.0129Z" fill="#39073F"/>
<path d="M11.4638 76.1705C11.5617 76.6391 11.5417 77.0924 11.4037 77.5305C11.2562 77.9706 11.0161 78.3502 10.6836 78.6692C10.351 78.9883 9.94565 79.1978 9.46748 79.2977C9.02757 79.3897 8.59335 79.3657 8.16483 79.2257C7.72475 79.0782 7.34419 78.8333 7.02313 78.4912C6.69252 78.1511 6.47523 77.7324 6.37127 77.2351C6.2753 76.776 6.29631 76.3275 6.4343 75.8894C6.57029 75.4418 6.80934 75.0574 7.15146 74.7364C7.48402 74.4173 7.89416 74.2068 8.38189 74.1048C8.8505 74.0069 9.30106 74.0374 9.73357 74.1966C10.1641 74.3461 10.5351 74.5929 10.8466 74.9371C11.1581 75.2812 11.3638 75.6923 11.4638 76.1705Z" fill="#39073F"/>
<path d="M11.6214 60.7286C11.5879 61.1082 11.4684 61.4066 11.2628 61.6238C11.0573 61.8411 10.76 61.9865 10.371 62.06L2.5204 63.6621C2.18177 63.7204 1.89381 63.7048 1.65652 63.6152C1.42008 63.5159 1.24276 63.358 1.12455 63.1416C0.997471 62.9146 0.946818 62.6551 0.972592 62.3632C1.0018 62.0323 1.10901 61.7622 1.29422 61.553C1.47943 61.3437 1.80103 61.2005 2.25903 61.1232L9.04522 59.9127L8.97434 60.7156L2.47007 56.0661C2.15635 55.8423 1.93596 55.6168 1.80887 55.3899C1.68265 55.1531 1.63457 54.8644 1.66464 54.5238C1.69643 54.1637 1.80851 53.8941 2.00087 53.7149C2.18436 53.5251 2.40878 53.4272 2.67413 53.4212C2.93948 53.4152 3.20554 53.5123 3.47231 53.7124L10.8464 59.1743C11.1504 59.3973 11.3655 59.6271 11.4917 59.8638C11.6082 60.0997 11.6514 60.388 11.6214 60.7286Z" fill="#39073F"/>
<path d="M13.8659 48.385C13.5598 49.3231 13.1212 50.0844 12.5503 50.6689C11.97 51.2503 11.2912 51.63 10.5137 51.808C9.72999 51.9736 8.87372 51.9049 7.9449 51.6018C7.09968 51.326 6.36968 50.9491 5.75489 50.471C5.13385 49.9806 4.64368 49.4199 4.28436 48.7888C3.92808 48.1484 3.72133 47.4592 3.66413 46.7211C3.60066 45.9707 3.69925 45.1961 3.95989 44.3973C4.26902 43.45 4.71371 42.6855 5.29397 42.1041C5.86493 41.5196 6.54227 41.1446 7.32599 40.9789C8.10042 40.8103 8.9474 40.8759 9.86693 41.176C10.7214 41.4548 11.4607 41.8348 12.0848 42.3159C12.6996 42.794 13.1851 43.3532 13.5414 43.9936C13.8977 44.634 14.1076 45.3294 14.171 46.0797C14.2282 46.8178 14.1265 47.5862 13.8659 48.385ZM11.7294 47.6571C11.9143 47.0905 11.9217 46.5636 11.7518 46.0766C11.5819 45.5895 11.2671 45.1527 10.8073 44.7664C10.3383 44.377 9.75552 44.0686 9.05891 43.8413C8.2787 43.5867 7.64222 43.5846 7.14947 43.8349C6.65045 44.0729 6.2979 44.5076 6.09182 45.1392C5.913 45.6872 5.90705 46.2094 6.07395 46.7058C6.24388 47.1929 6.55871 47.6296 7.01843 48.016C7.48118 48.3931 8.0655 48.6968 8.7714 48.9271C9.54232 49.1787 10.1773 49.1855 10.6763 48.9475C11.1753 48.7095 11.5263 48.2794 11.7294 47.6571Z" fill="#39073F"/>
<path d="M16.9748 40.3672C16.7587 40.7724 16.484 40.9968 16.1506 41.0405C15.8219 41.0756 15.4518 40.9391 15.0403 40.631L8.83677 35.944C8.4724 35.6722 8.25515 35.3737 8.18503 35.0484C8.10629 34.7185 8.17267 34.3553 8.38415 33.9587C8.59564 33.5622 8.86575 33.3463 9.19449 33.3113C9.52782 33.2676 9.89794 33.4041 10.3048 33.7207L16.4954 38.4008C16.8684 38.6773 17.0966 38.9761 17.1799 39.2974C17.2546 39.614 17.1862 39.9707 16.9748 40.3672Z" fill="#39073F"/>
<path d="M19.7608 35.0983C19.5004 35.4403 19.2021 35.6061 18.8661 35.5958C18.5301 35.5855 18.1837 35.3954 17.8268 35.0254L12.5506 29.4965C12.2345 29.1698 12.0708 28.8364 12.0597 28.4963C12.0407 28.1503 12.1674 27.7985 12.4397 27.441L14.3044 24.9926C15.0206 24.0521 15.7781 23.4929 16.5766 23.3152C17.3734 23.1237 18.137 23.3061 18.8677 23.8626C19.5128 24.3539 19.9348 24.8963 20.1336 25.4899C20.3325 26.0834 20.3426 26.6991 20.164 27.3367C19.9853 27.9744 19.6563 28.608 19.1768 29.2376L18.9669 29.0778L19.2955 28.6464C19.6033 28.2422 19.9607 27.9986 20.3678 27.9157C20.7749 27.8327 21.2251 27.8624 21.7184 28.0048L22.7859 28.3204C23.1545 28.4169 23.428 28.5577 23.6064 28.7427C23.7849 28.9277 23.8634 29.1471 23.8419 29.401C23.8205 29.6549 23.6944 29.9334 23.4635 30.2365C23.2445 30.5241 22.9931 30.701 22.7092 30.7673C22.4313 30.8258 22.0886 30.7921 21.6812 30.6659L19.5461 30.0347C19.2693 29.9466 19.0378 29.9361 18.8517 30.0032C18.6637 30.0565 18.4839 30.1958 18.3122 30.4213L17.7794 31.1208L19.6411 33.0544C19.9572 33.3811 20.1247 33.7175 20.1436 34.0635C20.1548 34.4036 20.0272 34.7485 19.7608 35.0983ZM16.4414 29.7333L17.6223 28.1827C17.942 27.7629 18.0953 27.3762 18.0823 27.0224C18.0674 26.6549 17.8773 26.3321 17.512 26.0538C17.2088 25.823 16.9065 25.7524 16.6049 25.842C16.3092 25.9238 15.9986 26.1785 15.673 26.606L14.6874 27.9001L16.4414 29.7333Z" fill="#39073F"/>
<path d="M30.8282 22.5098C30.448 22.7843 30.0924 22.8842 29.7615 22.8097C29.4328 22.7216 29.1619 22.4713 28.9486 22.059L25.4104 15.0519C25.22 14.6712 25.1638 14.3262 25.2418 14.0169C25.3198 13.7076 25.5292 13.43 25.8698 13.1842C26.2343 12.9212 26.578 12.8298 26.9009 12.91C27.2239 12.9902 27.4909 13.2434 27.7019 13.6694L30.7878 19.774L33.5211 17.8016C33.8222 17.5843 34.1016 17.4791 34.3595 17.4858C34.6252 17.4867 34.8439 17.6061 35.0154 17.8438C35.2555 18.1765 35.348 18.5134 35.2929 18.8544C35.2399 19.1817 35.0431 19.4683 34.7025 19.7142L30.8282 22.5098Z" fill="#39073F"/>
<path d="M38.5112 17.1963C38.0693 17.4045 37.6925 17.4416 37.381 17.3075C37.0653 17.1647 36.8408 16.86 36.7075 16.3936L34.5649 9.06001C34.4436 8.64197 34.452 8.2816 34.5902 7.9789C34.7284 7.6762 34.992 7.43324 35.3809 7.25004L39.8089 5.16404C40.1271 5.01415 40.4014 4.96594 40.6318 5.01941C40.8622 5.07288 41.0357 5.22335 41.1523 5.47083C41.3146 5.81553 41.3421 6.1374 41.2345 6.43645C41.1317 6.7225 40.9079 6.94672 40.5632 7.1091L37.1162 8.73293L37.6747 10.6406L40.6577 9.23539C40.9759 9.08549 41.2502 9.03728 41.4806 9.09075C41.7109 9.14422 41.8844 9.29469 42.001 9.54217C42.1634 9.88687 42.1908 10.2087 42.0833 10.5078C41.9716 10.798 41.7478 11.0222 41.412 11.1804L38.2566 12.6669L38.8573 14.7329L42.132 13.1902C42.4502 13.0404 42.7244 12.9921 42.9548 13.0456C43.1852 13.0991 43.3587 13.2496 43.4753 13.497C43.6377 13.8417 43.6651 14.1636 43.5576 14.4627C43.4547 14.7487 43.2354 14.9708 42.8995 15.1291L38.5112 17.1963Z" fill="#39073F"/>
<path d="M50.5185 12.5587C50.1582 12.6482 49.7777 12.7176 49.3772 12.7668C48.9862 12.8136 48.5916 12.8261 48.1935 12.8042C47.7955 12.7823 47.4164 12.7356 47.0563 12.664C46.7673 12.5949 46.5448 12.469 46.3886 12.2863C46.2396 12.0918 46.1511 11.8772 46.123 11.6425C46.1043 11.4056 46.1402 11.1852 46.2305 10.9816C46.3303 10.7756 46.4822 10.617 46.6861 10.5059C46.8996 10.3925 47.165 10.3668 47.4824 10.4289C47.961 10.5314 48.4431 10.5676 48.9289 10.5375C49.4242 10.505 49.8615 10.4417 50.2408 10.3474C50.7812 10.2131 51.1725 10.0253 51.4145 9.78393C51.6637 9.53073 51.7553 9.27139 51.6893 9.0059C51.6351 8.78782 51.5003 8.63005 51.2848 8.5326C51.0764 8.4233 50.772 8.37311 50.3715 8.38203L48.6369 8.39025C47.8763 8.40814 47.226 8.24254 46.6863 7.89345C46.156 7.542 45.8072 7.02967 45.6399 6.35647C45.5056 5.81601 45.5015 5.31365 45.6278 4.84939C45.7517 4.37564 45.9774 3.94706 46.3049 3.56364C46.6301 3.17075 47.031 2.83957 47.5077 2.5701C47.982 2.29116 48.4989 2.08217 49.0583 1.94315C49.5134 1.83005 50.0194 1.75968 50.5763 1.73202C51.1332 1.70437 51.6865 1.76321 52.236 1.90853C52.4918 1.96575 52.6919 2.08215 52.8362 2.2577C52.99 2.4309 53.0845 2.62889 53.1197 2.85168C53.1526 3.065 53.118 3.26992 53.0158 3.46645C52.9231 3.66063 52.7606 3.81679 52.5282 3.93495C52.3029 4.04126 52.0079 4.06928 51.643 4.01901C51.3161 3.95931 50.969 3.93986 50.6016 3.96067C50.232 3.972 49.8907 4.01654 49.5778 4.0943C49.227 4.18148 48.9342 4.29955 48.6994 4.4485C48.4717 4.58562 48.3091 4.74179 48.2117 4.917C48.1143 5.09221 48.088 5.2699 48.1328 5.45005C48.187 5.66813 48.3123 5.82825 48.5089 5.93042C48.7054 6.03259 48.985 6.08393 49.3475 6.08444L51.0785 6.062C51.9008 6.04894 52.583 6.22169 53.1251 6.58026C53.6649 6.92936 54.0149 7.42628 54.1751 8.07104C54.3165 8.63994 54.317 9.16836 54.1765 9.6563C54.0431 10.1324 53.7984 10.5657 53.4424 10.9562C53.0936 11.3348 52.6666 11.6624 52.1615 11.939C51.654 12.206 51.1063 12.4126 50.5185 12.5587Z" fill="#39073F"/>
<path d="M66.4329 10.6901C66.0528 10.6635 65.7523 10.5494 65.5313 10.3478C65.3104 10.1463 65.1597 9.85168 65.0791 9.46407L63.3352 1.64374C63.2707 1.30622 63.2811 1.01803 63.3664 0.779153C63.4615 0.540961 63.6161 0.360811 63.8303 0.238705C64.055 0.107535 64.3135 0.0521939 64.6059 0.0726806C64.9373 0.0958989 65.2092 0.198204 65.4218 0.379597C65.6343 0.560989 65.7834 0.879946 65.8689 1.33647L67.2021 8.09964L66.398 8.0433L70.929 1.45595C71.1471 1.13824 71.3685 0.913798 71.5932 0.782628C71.8276 0.652141 72.1154 0.598848 72.4565 0.62275C72.8171 0.648017 73.0887 0.755195 73.2713 0.944285C73.4644 1.12431 73.5663 1.34692 73.5771 1.61212C73.5879 1.87732 73.4957 2.14509 73.3005 2.41544L67.973 9.8872C67.7555 10.1952 67.5296 10.4144 67.2952 10.5449C67.0614 10.6656 66.774 10.714 66.4329 10.6901Z" fill="#39073F"/>
<path d="M75.3924 11.7955C74.9468 11.6848 74.6621 11.4731 74.5384 11.1605C74.4243 10.8502 74.4664 10.458 74.6647 9.98379L77.6972 2.8245C77.872 2.40484 78.1086 2.12134 78.4069 1.974C78.7076 1.81719 79.0761 1.79297 79.5122 1.90136C79.9484 2.00975 80.2236 2.21907 80.3378 2.52933C80.4614 2.84194 80.4193 3.23417 80.2114 3.70602L77.1825 10.8511C77.0054 11.2802 76.7712 11.5744 76.48 11.7336C76.1911 11.8832 75.8286 11.9039 75.3924 11.7955Z" fill="#39073F"/>
<path d="M81.2125 13.0091C80.7846 12.8172 80.5176 12.5529 80.4116 12.2163C80.3145 11.8837 80.3975 11.5194 80.6608 11.1234L84.8321 4.72246C85.0704 4.35819 85.3494 4.12996 85.6691 4.03777C85.9889 3.94559 86.3449 3.98744 86.7371 4.16334L88.89 5.12877C90.4769 5.84035 91.5343 6.75354 92.0623 7.86833C92.5993 8.98712 92.5779 10.1928 91.9982 11.4855C91.6584 12.2432 91.2267 12.8955 90.7031 13.4424C90.1835 13.9803 89.584 14.386 88.9045 14.6596C88.2291 14.9242 87.4882 15.0363 86.6818 14.9959C85.8883 14.9506 85.0459 14.7281 84.1544 14.3283L81.2125 13.0091ZM83.4833 11.6343L85.0746 12.3479C85.556 12.5637 86.009 12.6758 86.4335 12.6842C86.871 12.6876 87.274 12.6007 87.6427 12.4233C88.0113 12.246 88.3415 11.9872 88.6333 11.6469C88.938 11.3017 89.2023 10.8795 89.4261 10.3803C89.742 9.676 89.7832 9.04671 89.55 8.49239C89.3167 7.93808 88.7989 7.48102 87.9966 7.12123L86.7931 6.58155L83.4833 11.6343Z" fill="#39073F"/>
<path d="M92.8837 18.734C92.4918 18.4424 92.2815 18.1276 92.2529 17.7896C92.2301 17.4439 92.3929 17.1023 92.7414 16.7649L98.1994 11.4185C98.5109 11.1145 98.8327 10.952 99.1648 10.9313C99.4969 10.9105 99.8354 11.0284 100.18 11.285L104.107 14.2071C104.389 14.4171 104.561 14.6363 104.623 14.8646C104.684 15.093 104.633 15.317 104.47 15.5364C104.242 15.8421 103.971 16.018 103.657 16.0642C103.356 16.1083 103.053 16.0166 102.747 15.7891L99.6904 13.5145L98.2712 14.9062L100.917 16.8747C101.199 17.0847 101.371 17.3038 101.432 17.5322C101.493 17.7606 101.442 17.9845 101.279 18.204C101.052 18.5097 100.781 18.6856 100.466 18.7317C100.158 18.77 99.8545 18.6784 99.5567 18.4567L96.7584 16.3745L95.2194 17.8781L98.1235 20.039C98.4057 20.249 98.5775 20.4682 98.6389 20.6966C98.7003 20.925 98.6494 21.1489 98.4861 21.3684C98.2586 21.6741 97.9877 21.85 97.6733 21.8961C97.3725 21.9402 97.0732 21.8515 96.7753 21.6298L92.8837 18.734ZM103.788 12.7457C103.548 12.774 103.349 12.7298 103.193 12.6131C103.049 12.4945 102.951 12.3483 102.898 12.1746C102.852 12.0067 102.866 11.8406 102.94 11.6761C103.021 11.5176 103.175 11.4007 103.402 11.3256L105.027 10.8359C105.294 10.7547 105.525 10.7558 105.718 10.8391C105.926 10.9204 106.083 11.0439 106.192 11.2096C106.308 11.3811 106.366 11.5645 106.367 11.7599C106.373 11.9475 106.307 12.1178 106.169 12.2707C106.045 12.4216 105.845 12.5103 105.569 12.5367L103.788 12.7457Z" fill="#39073F"/>
<path d="M103.254 27.8169C102.604 27.075 102.173 26.3094 101.961 25.5201C101.757 24.7244 101.777 23.9468 102.021 23.1874C102.278 22.4288 102.774 21.7275 103.509 21.0833C104.177 20.4971 104.874 20.0615 105.599 19.7767C106.337 19.4928 107.07 19.3573 107.796 19.3703C108.528 19.3906 109.226 19.5645 109.89 19.8918C110.568 20.2201 111.184 20.7001 111.738 21.3318C112.395 22.0811 112.826 22.8535 113.03 23.6492C113.241 24.4385 113.218 25.2124 112.961 25.971C112.711 26.7231 112.222 27.418 111.495 28.0557C110.819 28.6484 110.115 29.0903 109.383 29.3816C108.658 29.6664 107.929 29.7987 107.197 29.7784C106.464 29.758 105.759 29.5838 105.081 29.2555C104.417 28.9281 103.808 28.4486 103.254 27.8169ZM104.97 26.3508C105.363 26.7989 105.813 27.0741 106.318 27.1765C106.824 27.2788 107.36 27.2309 107.927 27.0327C108.501 26.828 109.064 26.4841 109.615 26.0009C110.232 25.4598 110.558 24.9135 110.594 24.362C110.644 23.8114 110.45 23.2863 110.012 22.7868C109.632 22.3535 109.186 22.0819 108.674 21.9722C108.168 21.8698 107.632 21.9178 107.065 22.116C106.505 22.3216 105.946 22.6692 105.387 23.1588C104.778 23.6935 104.448 24.2361 104.398 24.7867C104.348 25.3373 104.539 25.8587 104.97 26.3508Z" fill="#39073F"/>
<path d="M110.081 37.0937C109.901 36.7688 109.736 36.4191 109.585 36.0449C109.439 35.6792 109.325 35.3012 109.243 34.911C109.162 34.5208 109.109 34.1425 109.085 33.7761C109.078 33.4791 109.142 33.2315 109.278 33.0335C109.427 32.8394 109.612 32.6984 109.831 32.6107C110.055 32.5315 110.277 32.5093 110.498 32.544C110.722 32.5873 110.915 32.6931 111.075 32.8614C111.239 33.0383 111.333 33.2881 111.355 33.6108C111.379 34.0996 111.469 34.5748 111.623 35.0364C111.782 35.5065 111.956 35.9126 112.145 36.2547C112.415 36.7422 112.697 37.0717 112.993 37.2432C113.302 37.4186 113.576 37.4401 113.815 37.3078C114.012 37.1992 114.13 37.0282 114.168 36.7948C114.22 36.5653 114.19 36.2582 114.078 35.8736L113.622 34.2C113.409 33.4697 113.401 32.7988 113.599 32.1872C113.801 31.5841 114.206 31.1149 114.813 30.7795C115.301 30.5103 115.785 30.3767 116.266 30.3788C116.756 30.3762 117.228 30.4837 117.683 30.7011C118.147 30.9139 118.57 31.2157 118.954 31.6067C119.346 31.9929 119.681 32.4383 119.96 32.9429C120.186 33.3534 120.385 33.8241 120.555 34.355C120.726 34.8859 120.812 35.4355 120.813 36.004C120.824 36.2659 120.763 36.4892 120.631 36.674C120.503 36.8672 120.336 37.0097 120.13 37.1012C119.933 37.188 119.726 37.2074 119.509 37.1595C119.298 37.12 119.105 37.0033 118.931 36.8093C118.77 36.6191 118.667 36.3413 118.621 35.9758C118.595 35.6446 118.524 35.3042 118.409 34.9547C118.302 34.6005 118.171 34.2823 118.015 34C117.841 33.6836 117.651 33.4312 117.446 33.2428C117.255 33.0582 117.062 32.9415 116.868 32.8927C116.674 32.8438 116.495 32.8642 116.333 32.954C116.136 33.0626 116.014 33.2251 115.966 33.4413C115.918 33.6576 115.94 33.9409 116.033 34.2913L116.502 35.9579C116.727 36.7489 116.736 37.4526 116.529 38.0689C116.331 38.6805 115.942 39.1469 115.36 39.4681C114.847 39.7516 114.337 39.8884 113.829 39.8786C113.335 39.8726 112.853 39.7481 112.384 39.505C111.928 39.2657 111.501 38.9377 111.104 38.5211C110.715 38.0998 110.374 37.624 110.081 37.0937Z" fill="#39073F"/>
<path d="M117.156 50.7985C117.049 50.3319 117.061 49.8782 117.19 49.4376C117.33 48.9948 117.562 48.6108 117.889 48.2855C118.215 47.9602 118.617 47.743 119.093 47.634C119.531 47.5338 119.966 47.5496 120.397 47.6814C120.839 47.8206 121.225 48.0582 121.552 48.3942C121.889 48.728 122.114 49.1425 122.228 49.6377C122.332 50.0949 122.32 50.5437 122.19 50.9844C122.063 51.4345 121.831 51.8233 121.495 52.1508C121.168 52.4761 120.762 52.6943 120.277 52.8055C119.81 52.9123 119.359 52.8903 118.923 52.7394C118.49 52.598 118.115 52.3582 117.797 52.0201C117.479 51.6819 117.265 51.2747 117.156 50.7985Z" fill="#39073F"/>
</g>
<defs>
<clipPath id="clip0_2965_10989">
<rect width="127.586" height="127.585" fill="white" transform="translate(0.207031 0.206787)"/>
</clipPath>
</defs>
</svg>
