<svg width="58" height="58" viewBox="0 0 58 58" fill="none" xmlns="http://www.w3.org/2000/svg">
<g clip-path="url(#clip0_2965_10982)">
<path d="M32.5973 12.2861H6.63907C3.21532 12.2861 0.414062 15.0874 0.414062 18.5111V39.4894C0.414062 42.9132 3.21532 45.7144 6.63907 45.7144H32.5973C36.0211 45.7144 38.8223 42.9132 38.8223 39.4894V18.5111C38.8223 15.0251 36.0211 12.2861 32.5973 12.2861Z" fill="#39073F"/>
<path d="M52.7038 15.7096C52.3303 15.7719 51.9568 15.9586 51.6456 16.1454L41.9346 21.7479V36.1899L51.7078 41.7924C53.5131 42.8507 55.7541 42.2282 56.8123 40.4229C57.1236 39.8627 57.3103 39.2402 57.3103 38.5554V19.3201C57.3103 17.0169 55.1316 15.1494 52.7038 15.7096Z" fill="#39073F"/>
</g>
<defs>
<clipPath id="clip0_2965_10982">
<rect width="56.8966" height="56.8966" fill="white" transform="translate(0.414062 0.551758)"/>
</clipPath>
</defs>
</svg>
