<svg width="248" height="100" viewBox="0 0 248 100" fill="none" xmlns="http://www.w3.org/2000/svg">
<rect width="248" height="100" fill="white" fill-opacity="0.01"/>
<path d="M75.6414 36.942H78.2823C79.8906 36.7051 81.5331 36.9134 83.0313 37.5443C84.9109 38.6752 86.2743 40.4957 86.8305 42.6176C87.2243 43.7296 87.2243 43.7296 88.1741 43.3358H88.9154V34.5328H64.0586V36.0849H65.0779C65.5208 36.0818 65.9588 36.1781 66.3597 36.3665C66.7606 36.5549 67.1142 36.8307 67.3945 37.1737C68.3443 38.7026 68.5064 40.4169 68.5064 49.3357C68.5064 58.8104 68.2979 61.127 67.3945 62.3084C67.1714 62.6122 66.8827 62.8616 66.5497 63.0381C66.2168 63.2146 65.8483 63.3136 65.4717 63.3277C64.0586 63.5826 64.0586 63.5594 64.0586 64.1849C63.9805 64.394 63.9805 64.6244 64.0586 64.8335H79.7418C79.8456 64.6289 79.8996 64.4027 79.8996 64.1733C79.8996 63.9439 79.8456 63.7177 79.7418 63.5131C79.3619 63.4074 78.9748 63.33 78.5835 63.2814C78.1602 63.2311 77.7418 63.1458 77.3325 63.0266C76.7465 62.5987 76.2822 62.0254 75.9856 61.3631C75.6891 60.7009 75.5704 59.9727 75.6414 59.2506C75.4098 57.7216 75.294 54.9186 75.294 52.602V50.7719H76.2206C77.3751 50.7366 78.5289 50.8614 79.6491 51.1426C80.1858 51.4742 80.6426 51.9203 80.987 52.4489C81.3314 52.9775 81.5548 53.5756 81.6414 54.2005L81.8498 54.9186H83.263V44.6562H81.9657L81.7572 45.6523C81.6695 46.2914 81.433 46.901 81.0669 47.4321C80.7008 47.9631 80.2152 48.4009 79.6491 48.7102C79.1009 48.8733 78.5233 48.9129 77.958 48.826H75.294V46.3241C75.294 43.7296 75.433 38.2625 75.5256 37.4054L75.6414 36.942ZM184.057 55.3124C182.962 53.55 181.254 52.2546 179.262 51.6754C177.734 51.198 176.322 50.4092 175.115 49.3588C174.843 49.0961 174.64 48.7708 174.523 48.4114C174.406 48.0521 174.378 47.6695 174.443 47.2971C174.445 46.5667 174.736 45.8668 175.254 45.3512C175.605 44.9839 176.048 44.7188 176.538 44.5841C177.028 44.4495 177.545 44.4504 178.034 44.5867C179.046 44.8753 179.962 45.4325 180.684 46.1992C181.406 46.9659 181.907 47.9136 182.134 48.9419C182.505 49.9843 182.551 49.9843 183.223 49.7063L183.64 49.5442V43.7759L183.339 43.6369C181.058 42.8359 178.639 42.505 176.227 42.664C174.15 42.7166 172.167 43.5427 170.667 44.9805C169.987 45.6173 169.454 46.3951 169.106 47.2595C168.758 48.1238 168.603 49.0538 168.652 49.9843C168.665 51.407 169.229 52.769 170.227 53.7835C171.329 54.8676 172.682 55.6633 174.165 56.1C177.756 57.5132 178.798 58.4166 178.798 60.0614C178.814 60.755 178.593 61.4332 178.172 61.9847C177.751 62.5361 177.155 62.9281 176.482 63.0961C175.673 63.2738 174.835 63.2738 174.026 63.0961C172.967 62.685 172.021 62.0271 171.268 61.1769C170.514 60.3267 169.975 59.3089 169.694 58.2081L169.393 57.4668H168.976C168.777 57.4816 168.581 57.5286 168.397 57.6058H168.165V64.1849H168.559C170.124 64.7055 171.739 65.0626 173.377 65.2505H175.694C176.699 65.3242 177.709 65.2303 178.682 64.9725C179.919 64.7444 181.074 64.1967 182.033 63.3839C182.992 62.5711 183.722 61.5215 184.149 60.3394C184.426 59.6791 184.568 58.9703 184.566 58.2545C184.658 57.246 184.482 56.2314 184.057 55.3124ZM162.235 43.3358C160.847 42.7529 159.351 42.4702 157.846 42.5062C156.341 42.5421 154.86 42.8959 153.501 43.5443C152.224 44.169 151.092 45.0546 150.178 46.1439C149.265 47.2333 148.589 48.5021 148.196 49.8685C147.695 51.3591 147.483 52.9315 147.571 54.5016C147.554 55.3559 147.624 56.2096 147.779 57.0498C148.153 59.1158 149.151 61.0177 150.637 62.5002C152.124 63.9828 154.029 64.9748 156.096 65.3432C157.442 65.5127 158.804 65.5127 160.15 65.3432C161.547 65.097 162.883 64.5859 164.088 63.8374C165.084 63.2788 165.928 62.4831 166.544 61.5208C166.504 61.3698 166.434 61.2284 166.339 61.105C166.243 60.9816 166.124 60.8788 165.988 60.8027C165.723 60.8984 165.474 61.031 165.246 61.1965C164.094 61.9559 162.733 62.3365 161.354 62.2853C160.439 62.3472 159.522 62.2047 158.668 61.8681C157.815 61.5315 157.047 61.0093 156.42 60.3394C155.935 59.8891 155.535 59.3556 155.239 58.7641C154.519 57.324 154.131 55.7408 154.104 54.131V53.2275H166.937V52.7642C166.966 52.3013 166.966 51.8371 166.937 51.3743C166.933 49.7385 166.495 48.1332 165.669 46.7213C164.843 45.3094 163.658 44.1414 162.235 43.3358ZM155.772 51.3511H154.15V49.9843C154.683 46.4863 156.003 44.4014 157.625 44.4014C159.246 44.4014 159.941 46.4631 160.243 50.2391V51.3048H158.853L155.772 51.3511ZM122.459 42.5713C121.659 42.5403 120.863 42.7074 120.143 43.0578C118.577 43.8181 117.312 45.0828 116.552 46.6485L116.251 47.2044V42.5713H116.135C115.857 42.5713 107.286 44.2856 107.008 44.4014C106.73 44.5172 106.822 44.5404 106.822 44.9574C106.822 45.3743 106.822 45.4438 107.008 45.467L107.911 45.6523C108.164 45.6585 108.413 45.7223 108.637 45.8386C108.862 45.955 109.057 46.1211 109.209 46.3241C109.788 47.0886 109.903 48.4322 109.903 54.1541C110.018 56.7301 109.909 59.3111 109.579 61.8683C109.501 62.2539 109.306 62.6058 109.02 62.8756C108.733 63.1453 108.37 63.3195 107.981 63.3741L107.193 63.5362H106.892V64.1849C106.808 64.4009 106.808 64.6406 106.892 64.8567H119.842V64.1849C119.886 63.9632 119.886 63.7347 119.842 63.5131C119.062 63.4827 118.287 63.3819 117.525 63.2119C117.11 62.995 116.771 62.6576 116.552 62.244C116.333 61.8305 116.244 61.3603 116.297 60.8953C116.112 59.5517 116.019 55.6136 116.066 52.602C116.112 49.5905 116.066 49.4052 116.32 49.1967C117.096 48.6023 118.055 48.299 119.031 48.3396C119.951 48.3596 120.854 48.5894 121.672 49.0114C121.955 49.1688 122.259 49.2857 122.575 49.3588C122.575 49.3588 124.892 43.7527 124.892 43.4979C124.595 43.1534 124.218 42.8883 123.793 42.7265C123.368 42.5647 122.91 42.5114 122.459 42.5713ZM106.846 52.3009C106.765 50.6455 106.289 49.0334 105.459 47.5988C104.629 46.1643 103.468 44.9489 102.073 44.0539C100.416 43.1596 98.5714 42.6665 96.6885 42.6142C94.8057 42.5619 92.9368 42.9518 91.2319 43.7527C88.8215 45.0238 87.0016 47.1845 86.1587 49.7758C85.288 52.6771 85.288 55.7701 86.1587 58.6714C86.6151 60.2571 87.4682 61.7002 88.6374 62.8644C90.0936 64.2853 91.9712 65.1957 93.9887 65.459C95.2837 65.5673 96.5855 65.5673 97.8805 65.459C98.357 65.3865 98.8289 65.2859 99.2936 65.1578C101.179 64.6304 102.876 63.5768 104.184 62.1204C105.493 60.664 106.36 58.8651 106.683 56.934C106.915 55.4009 106.969 53.8464 106.846 52.3009ZM97.2087 63.8837C94.8921 64.5787 93.1547 62.3316 92.5756 57.6058C92.3629 55.1317 92.3629 52.6438 92.5756 50.1696C93.0389 46.3705 94.2203 44.4477 96.0504 44.4477C96.4196 44.4248 96.789 44.4907 97.1275 44.6398C97.4661 44.789 97.764 45.017 97.9963 45.3048C99.5484 46.8569 100.313 49.938 100.313 54.5711C100.506 57.1932 100.094 59.8245 99.1083 62.2621C98.6732 62.973 98.0001 63.5066 97.2087 63.7679V63.8837ZM138.907 43.0346C138.253 42.9505 137.591 42.9505 136.938 43.0346C135.683 43.0335 134.443 43.3022 133.301 43.8222L132.583 44.1234V39.0964C132.708 37.3999 132.708 35.6965 132.583 34C132.305 34 123.455 35.6911 123.316 35.7606C123.248 35.9316 123.248 36.1224 123.316 36.2934C123.316 36.7799 123.316 36.7567 124.359 36.9884C124.652 37.054 124.933 37.1633 125.193 37.3127C125.645 37.7379 125.946 38.2992 126.05 38.9111C126.314 40.6741 126.399 42.4591 126.305 44.2392V64.5787L126.93 64.7177C127.857 64.9262 130.475 65.3663 131.332 65.459C133.043 65.5951 134.763 65.5951 136.475 65.459C138.374 65.2649 140.185 64.5562 141.712 63.4091C143.239 62.262 144.423 60.7201 145.138 58.9494C145.565 57.813 145.86 56.6316 146.019 55.4282C146.157 53.7982 146.102 52.1576 145.857 50.5403C145.608 48.7274 144.808 47.0348 143.565 45.6921C142.321 44.3494 140.695 43.4217 138.907 43.0346ZM132.838 63.4899C132.838 63.1887 132.606 53.0422 132.652 48.9882V45.8145L133.324 45.6523C133.777 45.5874 134.237 45.5874 134.691 45.6523C135.192 45.6014 135.696 45.7152 136.127 45.9767C136.992 46.5737 137.711 47.3593 138.228 48.2741C138.746 49.189 139.049 50.2094 139.115 51.2584C139.284 52.9453 139.284 54.6448 139.115 56.3317C138.977 58.7835 138.032 61.1207 136.428 62.9803C135.973 63.4126 135.401 63.7025 134.783 63.8142C134.316 63.8955 133.838 63.8955 133.37 63.8142C132.93 63.8142 132.93 63.6752 132.93 63.4899H132.838Z" fill="#FF4235"/>
</svg>
