<svg width="226" height="77" viewBox="0 0 226 77" fill="none" xmlns="http://www.w3.org/2000/svg">
<path d="M112.918 49.4713L112.875 49.8972C112.322 54.3269 108.275 57.9046 103.846 57.9046H86.3188H78.3966C73.6901 57.9046 70.3466 54.0926 70.9429 49.3861L71.9438 41.4639L76.1392 8.22037C76.7142 3.68426 80.8669 0 85.403 0C89.9392 0 93.1549 3.68426 92.5799 8.22037L88.6614 39.2917C88.5123 40.4843 89.3642 41.4639 90.578 41.4639H105.933C110.362 41.4639 113.493 45.063 112.918 49.4713Z" fill="white"/>
<path d="M165.754 7.94352L165.669 8.49722C165.115 12.8843 161.111 16.4407 156.724 16.4407H141.242C140.071 16.4407 139.006 17.3778 138.857 18.5491C138.708 19.7204 139.538 20.6787 140.709 20.6787H155.915C160.451 20.6787 163.667 24.363 163.092 28.8991C162.517 33.4352 158.385 37.1194 153.849 37.1194H138.686C137.494 37.1194 136.386 38.0991 136.237 39.2917C136.088 40.4843 136.94 41.4639 138.133 41.4639H153.274C157.81 41.4639 161.026 45.1482 160.451 49.6843C159.876 54.2204 155.723 57.9046 151.187 57.9046H133.895H117.454H114.11C115.26 57.7982 117.922 55.2213 118.348 50.7917L123.672 8.6463C124.269 3.87593 128.634 0 133.405 0H158.79C163.177 0 166.308 3.55648 165.754 7.94352Z" fill="white"/>
<path fill-rule="evenodd" clip-rule="evenodd" d="M225.767 28.963C223.744 44.9565 209.07 57.9046 193.013 57.9046C176.956 57.9046 165.562 44.9565 167.585 28.963C169.63 12.9694 184.282 0 200.36 0C216.418 0 227.79 12.9694 225.767 28.963ZM209.539 28.963C210.433 21.8926 205.407 16.1426 198.316 16.1426C191.203 16.1426 184.707 21.8926 183.813 28.963C182.919 36.012 187.966 41.762 195.057 41.762C202.149 41.762 208.645 36.012 209.539 28.963Z" fill="white"/>
<path fill-rule="evenodd" clip-rule="evenodd" d="M65.4483 50.6852C66.8752 53.8157 64.128 57.862 60.4863 57.9046H50.3919H41.128C39.5308 57.7769 38.1465 57.1593 37.1243 55.2213C36.4215 53.9222 35.8465 50.3444 35.3567 47.2991C35.2928 46.9583 34.9733 46.7241 34.5687 46.7241H32.9076C32.503 46.7241 32.1196 46.9583 31.9919 47.2991C31.5872 48.2787 31.1613 49.3009 30.7141 50.3019C29.8196 52.4102 28.9039 54.3482 28.2011 55.2213C26.6891 57.1593 25.1558 57.7769 23.5159 57.9046H14.6993H4.13631C0.494642 57.862 -1.23036 53.8157 0.984453 50.6852L35.2289 2.36389C37.465 -0.787963 42.0437 -0.787963 43.4706 2.36389L65.4483 50.6852ZM39.6798 41.2083C39.7437 40.6333 39.2752 39.9093 38.7428 39.2704C38.5511 39.0574 38.5085 38.7593 38.615 38.4824C38.8919 37.6732 39.0835 36.8213 39.2113 35.9482C39.8715 30.7306 36.9326 26.5139 36.2937 26.5139C35.6548 26.5139 31.6724 30.7306 31.0122 35.9482C30.8845 36.8213 30.8845 37.6732 30.9483 38.4824C30.9696 38.7593 30.8632 39.0574 30.6289 39.2704C29.9261 39.9093 29.2659 40.6333 29.202 41.2083C28.9891 42.8482 29.3298 46.6602 29.5641 46.6602C29.7558 46.6602 30.0752 44.85 31.2465 43.7426C31.6937 43.338 32.3326 43.4019 32.6095 43.8491C32.6095 43.8633 32.6095 43.8704 32.6095 43.8704C32.7585 44.1046 32.9928 44.2324 33.2909 44.2324H34.803C35.1011 44.2324 35.378 44.1046 35.5909 43.8704C35.5909 43.8704 35.5909 43.8633 35.5909 43.8491C35.9743 43.4019 36.6345 43.338 36.9752 43.7426C37.8696 44.85 37.7206 46.6602 37.9122 46.6602C38.1678 46.6602 39.4669 42.8482 39.6798 41.2083Z" fill="white"/>
<path fill-rule="evenodd" clip-rule="evenodd" d="M24.261 76.3688C24.1758 76.2694 24.1545 76.1345 24.1971 75.9642L25.3684 71.0021C25.3968 70.8318 25.4678 70.704 25.5813 70.6188C25.6949 70.5194 25.8369 70.4697 26.0073 70.4697H28.0943C28.7474 70.4697 29.2159 70.633 29.4999 70.9595C29.7838 71.2719 29.8548 71.7191 29.7128 72.3012C29.585 72.8833 29.3011 73.3376 28.861 73.6642C28.435 73.9765 27.8955 74.1327 27.2425 74.1327H25.7304L25.3045 75.9642C25.2619 76.1345 25.1767 76.2694 25.0489 76.3688C24.9353 76.4682 24.7934 76.5179 24.623 76.5179C24.4526 76.5179 24.332 76.4682 24.261 76.3688ZM27.3063 73.3021C28.0588 73.3021 28.5131 72.9685 28.6693 72.3012C28.8255 71.6481 28.5273 71.3216 27.7749 71.3216H26.3906L25.9221 73.3021H27.3063Z" fill="white"/>
<path fill-rule="evenodd" clip-rule="evenodd" d="M37.1657 76.0919C37.1373 76.2197 37.0592 76.3262 36.9315 76.4114C36.8179 76.4966 36.6901 76.5392 36.5481 76.5392C36.4488 76.5392 36.3636 76.5179 36.2926 76.4753C36.2216 76.4327 36.1648 76.3688 36.1222 76.2836L35.3981 74.5586C35.3271 74.374 35.2349 74.2463 35.1213 74.1753C35.0077 74.1043 34.8515 74.0688 34.6528 74.0688H33.8222L33.375 75.9642C33.3324 76.1345 33.2543 76.2694 33.1407 76.3688C33.0129 76.4682 32.871 76.5179 32.7148 76.5179C32.5444 76.5179 32.4238 76.4682 32.3528 76.3688C32.2676 76.2694 32.2463 76.1345 32.2889 75.9642L33.4389 71.0021C33.4815 70.8318 33.5596 70.704 33.6731 70.6188C33.7867 70.5194 33.9287 70.4697 34.0991 70.4697H36.2287C36.9102 70.4697 37.3929 70.6259 37.6768 70.9382C37.9608 71.2364 38.0389 71.6694 37.9111 72.2373C37.7975 72.7058 37.5704 73.0892 37.2296 73.3873C36.9031 73.6855 36.4913 73.8771 35.9944 73.9623C36.1506 74.0049 36.2784 74.0759 36.3778 74.1753C36.4771 74.2747 36.5623 74.4166 36.6333 74.6012L37.1444 75.7938C37.187 75.8932 37.1941 75.9926 37.1657 76.0919ZM36.3991 72.9827C36.6262 72.8265 36.7753 72.5923 36.8463 72.2799C36.9315 71.9392 36.896 71.6978 36.7398 71.5558C36.5836 71.3997 36.2926 71.3216 35.8667 71.3216H34.4398L34.0139 73.2169H35.4407C35.8525 73.2169 36.1719 73.1389 36.3991 72.9827Z" fill="white"/>
<path fill-rule="evenodd" clip-rule="evenodd" d="M41.7447 76.1766C41.3756 75.921 41.1271 75.5661 40.9993 75.1118C40.8716 74.6432 40.8858 74.0966 41.0419 73.4719C41.1839 72.8473 41.4253 72.3006 41.766 71.8321C42.0925 71.3778 42.5043 71.0229 43.0012 70.7673C43.4839 70.526 44.0163 70.4053 44.5984 70.4053C45.1947 70.4053 45.6774 70.526 46.0466 70.7673C46.4157 71.0229 46.6571 71.3778 46.7706 71.8321C46.8984 72.3006 46.8913 72.8473 46.7493 73.4719C46.6074 74.0966 46.366 74.6432 46.0253 75.1118C45.6845 75.5661 45.2657 75.921 44.7688 76.1766C44.2861 76.4321 43.7537 76.5599 43.1716 76.5599C42.5895 76.5599 42.1138 76.4321 41.7447 76.1766ZM44.8114 75.1118C45.2089 74.7284 45.4858 74.1818 45.6419 73.4719C45.8123 72.7621 45.7839 72.2155 45.5567 71.8321C45.3438 71.463 44.9604 71.2784 44.4067 71.2784C43.853 71.2784 43.3774 71.463 42.9799 71.8321C42.5824 72.2155 42.2984 72.7621 42.128 73.4719C41.9577 74.1818 41.9861 74.7284 42.2132 75.1118C42.4404 75.4809 42.8308 75.6655 43.3845 75.6655C43.9382 75.6655 44.4138 75.4809 44.8114 75.1118Z" fill="white"/>
<path fill-rule="evenodd" clip-rule="evenodd" d="M49.7948 76.3688C49.7238 76.2694 49.7025 76.1345 49.7309 75.9642L50.9022 71.0021C50.9448 70.8318 51.0229 70.704 51.1365 70.6188C51.2501 70.5194 51.3849 70.4697 51.5411 70.4697H53.6494C54.2883 70.4697 54.7498 70.633 55.0337 70.9595C55.3177 71.2719 55.3886 71.7191 55.2467 72.3012C55.1189 72.8833 54.8349 73.3376 54.3948 73.6642C53.9689 73.9765 53.4365 74.1327 52.7976 74.1327H51.2643L50.8383 75.9642C50.7957 76.1345 50.7177 76.2694 50.6041 76.3688C50.4763 76.4682 50.3272 76.5179 50.1568 76.5179C49.9865 76.5179 49.8658 76.4682 49.7948 76.3688ZM52.8402 73.3021C53.6069 73.3021 54.0612 72.9685 54.2031 72.3012C54.3593 71.6481 54.0612 71.3216 53.3087 71.3216H51.9244L51.4559 73.3021H52.8402Z" fill="white"/>
<path d="M58.4412 75.9222C58.1147 75.4963 58.0508 74.8716 58.2495 74.0481L58.9523 70.9814C58.9949 70.8111 59.073 70.6762 59.1866 70.5768C59.3144 70.4774 59.4563 70.4277 59.6125 70.4277C59.7829 70.4277 59.9036 70.4774 59.9745 70.5768C60.0455 70.6762 60.0668 70.8111 60.0384 70.9814L59.2931 74.112C59.1795 74.6231 59.215 75.0135 59.3995 75.2833C59.5841 75.5388 59.9106 75.6666 60.3792 75.6666C60.8477 75.6666 61.231 75.5388 61.5292 75.2833C61.8415 75.0135 62.0545 74.6231 62.1681 74.112L62.8921 70.9814C62.9347 70.8111 63.0199 70.6762 63.1477 70.5768C63.2613 70.4774 63.4032 70.4277 63.5736 70.4277C63.7298 70.4277 63.8434 70.4774 63.9144 70.5768C63.9853 70.6762 64.0066 70.8111 63.9782 70.9814L63.2542 74.0481C63.0696 74.8574 62.7147 75.475 62.1893 75.9009C61.664 76.341 60.9897 76.5611 60.1662 76.5611C59.3427 76.5611 58.7677 76.3481 58.4412 75.9222Z" fill="white"/>
<path d="M66.5975 76.3481C66.5266 76.2487 66.5053 76.1209 66.5337 75.9648L67.705 70.9814C67.7475 70.8111 67.8256 70.6762 67.9392 70.5768C68.067 70.4774 68.209 70.4277 68.3651 70.4277C68.5355 70.4277 68.6633 70.4774 68.7485 70.5768C68.8194 70.6762 68.8336 70.8111 68.7911 70.9814L67.7262 75.5814H70.1327C70.4735 75.5814 70.6083 75.7305 70.5374 76.0287C70.4664 76.3268 70.2605 76.4759 69.9198 76.4759H66.9383C66.7821 76.4759 66.6685 76.4333 66.5975 76.3481Z" fill="white"/>
<path d="M74.3715 76.3682C74.0165 76.2547 73.7397 76.0985 73.5409 75.8997C73.4273 75.8003 73.3918 75.6655 73.4344 75.4951C73.4628 75.3815 73.5196 75.275 73.6048 75.1756C73.7042 75.0905 73.8036 75.0479 73.9029 75.0479C74.0023 75.0479 74.1088 75.0905 74.2224 75.1756C74.4211 75.346 74.6412 75.4738 74.8826 75.559C75.1381 75.63 75.4292 75.6655 75.7557 75.6655C76.1674 75.6655 76.5011 75.5945 76.7566 75.4525C77.0122 75.3105 77.1684 75.0976 77.2252 74.8136C77.282 74.6006 77.2181 74.4374 77.0335 74.3238C76.8631 74.2102 76.5437 74.0966 76.0752 73.9831C75.6066 73.8837 75.2304 73.763 74.9465 73.621C74.6767 73.479 74.485 73.2945 74.3715 73.0673C74.2579 72.8402 74.2437 72.5562 74.3289 72.2155C74.414 71.8747 74.5844 71.5624 74.84 71.2784C75.1097 71.0087 75.4363 70.7957 75.8196 70.6395C76.2171 70.4834 76.636 70.4053 77.0761 70.4053C77.8853 70.4053 78.4958 70.6182 78.9076 71.0442C78.9644 71.101 79.007 71.1648 79.0354 71.2358C79.0496 71.2926 79.0424 71.3636 79.014 71.4488C78.9857 71.5766 78.9289 71.6831 78.8437 71.7682C78.7443 71.8534 78.652 71.896 78.5668 71.896C78.51 71.896 78.4603 71.8889 78.4178 71.8747C78.361 71.8605 78.3042 71.825 78.2474 71.7682C78.0486 71.5979 77.8499 71.4772 77.6511 71.4062C77.4523 71.321 77.1968 71.2784 76.8844 71.2784C76.4869 71.2784 76.1604 71.3565 75.9048 71.5127C75.6492 71.6689 75.486 71.8818 75.415 72.1516C75.3582 72.3929 75.415 72.5704 75.5854 72.684C75.7557 72.8118 76.0681 72.9324 76.5224 73.046C77.0051 73.1596 77.3884 73.2874 77.6724 73.4294C77.9563 73.5571 78.1551 73.7346 78.2687 73.9618C78.3823 74.1747 78.4036 74.4445 78.3326 74.771C78.2474 75.1118 78.077 75.417 77.8215 75.6868C77.5659 75.9565 77.2394 76.1695 76.8418 76.3257C76.4585 76.4818 76.0326 76.5599 75.564 76.5599C75.1381 76.5599 74.7406 76.496 74.3715 76.3682Z" fill="white"/>
<path d="M81.5907 76.3475C81.5197 76.2481 81.4984 76.1203 81.5268 75.9642L82.6768 71.0021C82.7194 70.8318 82.7975 70.704 82.9111 70.6188C83.0247 70.5194 83.1666 70.4697 83.337 70.4697H86.4037C86.574 70.4697 86.6947 70.5052 86.7657 70.5762C86.8367 70.6614 86.858 70.7679 86.8296 70.8957C86.8012 71.0376 86.7302 71.1512 86.6166 71.2364C86.5031 71.3074 86.3682 71.3429 86.212 71.3429H83.6777L83.2944 72.9827H85.6583C85.8145 72.9827 85.9352 73.0253 86.0203 73.1105C86.0913 73.1814 86.1055 73.2879 86.0629 73.4299C86.0345 73.5577 85.9706 73.6642 85.8713 73.7493C85.7577 73.8203 85.6157 73.8558 85.4453 73.8558H83.1027L82.6981 75.6021H85.2111C85.3815 75.6021 85.5021 75.6447 85.5731 75.7299C85.6441 75.8009 85.6654 75.9074 85.637 76.0493C85.6086 76.1913 85.5376 76.2978 85.424 76.3688C85.3105 76.4398 85.1756 76.4753 85.0194 76.4753H81.9315C81.7753 76.4753 81.6617 76.4327 81.5907 76.3475Z" fill="white"/>
<path d="M93.2819 76.0281C93.2109 76.3262 93.0051 76.4753 92.6643 76.4753H89.0439C88.902 76.4753 88.7955 76.4327 88.7245 76.3475C88.6535 76.2623 88.6322 76.1487 88.6606 76.0068C88.689 75.8648 88.7671 75.737 88.8949 75.6234L92.9412 71.3429H90.2578C89.9171 71.3429 89.7822 71.2009 89.8532 70.9169C89.9242 70.6188 90.13 70.4697 90.4708 70.4697H93.9847C94.1409 70.4697 94.2473 70.5123 94.3041 70.5975C94.3751 70.6969 94.3964 70.8105 94.368 70.9382C94.3396 71.066 94.2615 71.1938 94.1338 71.3216L90.0875 75.6021H92.8773C93.218 75.6021 93.3529 75.7441 93.2819 76.0281Z" fill="white"/>
<path d="M107.508 70.4277C107.65 70.4277 107.763 70.4703 107.849 70.5555C107.948 70.6549 107.976 70.7685 107.934 70.8963C107.92 70.9672 107.891 71.0382 107.849 71.1092L104.292 76.1777C104.221 76.2913 104.129 76.3765 104.015 76.4333C103.887 76.4901 103.767 76.5185 103.653 76.5185C103.54 76.5185 103.433 76.4901 103.334 76.4333C103.249 76.3765 103.192 76.2913 103.163 76.1777L101.992 71.1092C101.978 71.0382 101.978 70.9743 101.992 70.9175C102.02 70.7756 102.106 70.6549 102.248 70.5555C102.375 70.4703 102.517 70.4277 102.674 70.4277C102.773 70.4277 102.858 70.449 102.929 70.4916C103 70.5484 103.043 70.6194 103.057 70.7046L104.015 75.0703L106.975 70.7046C107.117 70.52 107.295 70.4277 107.508 70.4277Z" fill="white"/>
<path fill-rule="evenodd" clip-rule="evenodd" d="M110.894 76.1766C110.525 75.921 110.276 75.5661 110.148 75.1118C110.021 74.6432 110.028 74.0966 110.17 73.4719C110.326 72.8473 110.567 72.3006 110.894 71.8321C111.235 71.3778 111.653 71.0229 112.15 70.7673C112.633 70.526 113.165 70.4053 113.747 70.4053C114.33 70.4053 114.812 70.526 115.196 70.7673C115.565 71.0229 115.806 71.3778 115.92 71.8321C116.047 72.3006 116.04 72.8473 115.898 73.4719C115.742 74.0966 115.494 74.6432 115.153 75.1118C114.812 75.5661 114.401 75.921 113.918 76.1766C113.435 76.4321 112.903 76.5599 112.321 76.5599C111.739 76.5599 111.263 76.4321 110.894 76.1766ZM113.96 75.1118C114.358 74.7284 114.635 74.1818 114.791 73.4719C114.961 72.7621 114.933 72.2155 114.706 71.8321C114.493 71.463 114.11 71.2784 113.556 71.2784C113.002 71.2784 112.526 71.463 112.129 71.8321C111.731 72.2155 111.447 72.7621 111.277 73.4719C111.107 74.1818 111.135 74.7284 111.362 75.1118C111.575 75.4809 111.966 75.6655 112.534 75.6655C113.073 75.6655 113.549 75.4809 113.96 75.1118Z" fill="white"/>
<path d="M120.009 76.3688C119.924 76.2694 119.902 76.1345 119.945 75.9642L121.01 71.3855H119.455C119.114 71.3855 118.98 71.2293 119.051 70.9169C119.122 70.6188 119.327 70.4697 119.668 70.4697H123.864C124.204 70.4697 124.339 70.6188 124.268 70.9169C124.197 71.2293 123.991 71.3855 123.651 71.3855H122.117L121.052 75.9642C121.01 76.1345 120.925 76.2694 120.797 76.3688C120.683 76.4682 120.541 76.5179 120.371 76.5179C120.201 76.5179 120.08 76.4682 120.009 76.3688Z" fill="white"/>
<path fill-rule="evenodd" clip-rule="evenodd" d="M131.104 76.0919C131.076 76.2197 130.997 76.3262 130.87 76.4114C130.742 76.4966 130.607 76.5392 130.465 76.5392C130.38 76.5392 130.302 76.5179 130.231 76.4753C130.146 76.4327 130.089 76.3688 130.06 76.2836L129.315 74.5586C129.244 74.374 129.159 74.2463 129.059 74.1753C128.946 74.1043 128.783 74.0688 128.57 74.0688H127.739L127.292 75.9642C127.264 76.1345 127.185 76.2694 127.058 76.3688C126.944 76.4682 126.802 76.5179 126.632 76.5179C126.476 76.5179 126.355 76.4682 126.27 76.3688C126.199 76.2694 126.184 76.1345 126.227 75.9642L127.377 71.0021C127.42 70.8318 127.498 70.704 127.611 70.6188C127.725 70.5194 127.86 70.4697 128.016 70.4697H130.146C130.827 70.4697 131.31 70.6259 131.594 70.9382C131.878 71.2364 131.956 71.6694 131.828 72.2373C131.714 72.7058 131.494 73.0892 131.168 73.3873C130.827 73.6855 130.408 73.8771 129.911 73.9623C130.068 74.0049 130.195 74.0759 130.295 74.1753C130.394 74.2747 130.486 74.4166 130.572 74.6012L131.061 75.7938C131.104 75.8932 131.118 75.9926 131.104 76.0919ZM130.337 72.9827C130.564 72.8265 130.714 72.5923 130.784 72.2799C130.855 71.9392 130.813 71.6978 130.657 71.5558C130.501 71.3997 130.217 71.3216 129.805 71.3216H128.378L127.931 73.2169H129.358C129.769 73.2169 130.096 73.1389 130.337 72.9827Z" fill="white"/>
<path d="M134.66 76.3475C134.589 76.2481 134.575 76.1203 134.618 75.9642L135.768 71.0021C135.81 70.8318 135.888 70.704 136.002 70.6188C136.116 70.5194 136.25 70.4697 136.407 70.4697H139.495C139.651 70.4697 139.764 70.5052 139.835 70.5762C139.92 70.6614 139.942 70.7679 139.899 70.8957C139.871 71.0376 139.8 71.1512 139.686 71.2364C139.587 71.3074 139.452 71.3429 139.282 71.3429H136.747L136.364 72.9827H138.728C138.898 72.9827 139.019 73.0253 139.09 73.1105C139.161 73.1814 139.182 73.2879 139.154 73.4299C139.125 73.5577 139.054 73.6642 138.941 73.7493C138.827 73.8203 138.692 73.8558 138.536 73.8558H136.172L135.768 75.6021H138.302C138.458 75.6021 138.572 75.6447 138.643 75.7299C138.728 75.8009 138.749 75.9074 138.707 76.0493C138.678 76.1913 138.607 76.2978 138.494 76.3688C138.394 76.4398 138.259 76.4753 138.089 76.4753H135.022C134.852 76.4753 134.731 76.4327 134.66 76.3475Z" fill="white"/>
<path fill-rule="evenodd" clip-rule="evenodd" d="M152.336 76.0499C152.308 76.1777 152.23 76.2842 152.102 76.3694C151.988 76.4688 151.86 76.5185 151.719 76.5185C151.633 76.5185 151.555 76.4901 151.484 76.4333C151.413 76.3907 151.364 76.3197 151.335 76.2203L151.101 75.0703H148.098L147.331 76.2203C147.26 76.3197 147.175 76.3907 147.076 76.4333C146.991 76.4901 146.898 76.5185 146.799 76.5185C146.671 76.5185 146.565 76.4688 146.48 76.3694C146.394 76.2842 146.366 76.1777 146.394 76.0499C146.409 75.9648 146.444 75.8867 146.501 75.8157L150.015 70.7685C150.1 70.6549 150.199 70.5697 150.313 70.5129C150.427 70.4561 150.547 70.4277 150.675 70.4277C150.789 70.4277 150.895 70.4561 150.994 70.5129C151.08 70.5697 151.136 70.6549 151.165 70.7685L152.336 75.8157C152.364 75.8867 152.364 75.9648 152.336 76.0499ZM150.931 74.2185L150.377 71.6842L148.673 74.2185H150.931Z" fill="white"/>
<path d="M156.596 76.1766C156.213 75.921 155.957 75.5661 155.829 75.1118C155.702 74.6432 155.716 74.0966 155.872 73.4719C156.014 72.8473 156.255 72.3006 156.596 71.8321C156.937 71.3778 157.356 71.0229 157.853 70.7673C158.335 70.526 158.868 70.4053 159.45 70.4053C159.819 70.4053 160.16 70.455 160.472 70.5544C160.77 70.6679 161.026 70.8312 161.239 71.0442C161.295 71.101 161.331 71.1578 161.345 71.2145C161.359 71.2855 161.352 71.3636 161.324 71.4488C161.295 71.5766 161.239 71.6831 161.153 71.7682C161.068 71.8534 160.976 71.896 160.877 71.896C160.763 71.896 160.657 71.8534 160.557 71.7682C160.358 71.5979 160.16 71.4772 159.961 71.4062C159.776 71.3352 159.556 71.2997 159.301 71.2997C158.704 71.2997 158.215 71.4843 157.831 71.8534C157.434 72.2226 157.15 72.7621 156.979 73.4719C156.823 74.196 156.852 74.7426 157.065 75.1118C157.278 75.4809 157.682 75.6655 158.278 75.6655C158.52 75.6655 158.754 75.6229 158.981 75.5377C159.208 75.4667 159.471 75.346 159.769 75.1756C159.84 75.1331 159.904 75.1047 159.961 75.0905C160.018 75.0621 160.082 75.0479 160.153 75.0479C160.252 75.0479 160.323 75.0905 160.366 75.1756C160.408 75.2608 160.415 75.3673 160.387 75.4951C160.373 75.5803 160.344 75.6584 160.302 75.7293C160.259 75.7861 160.195 75.8429 160.11 75.8997C159.798 76.1127 159.464 76.276 159.109 76.3895C158.754 76.5031 158.392 76.5599 158.023 76.5599C157.441 76.5599 156.965 76.4321 156.596 76.1766Z" fill="white"/>
<path d="M165.093 76.3688C165.022 76.2694 165.008 76.1345 165.051 75.9642L166.115 71.3855H164.561C164.22 71.3855 164.085 71.2293 164.156 70.9169C164.227 70.6188 164.433 70.4697 164.774 70.4697H168.969C169.31 70.4697 169.445 70.6188 169.374 70.9169C169.303 71.2293 169.097 71.3855 168.756 71.3855H167.201L166.137 75.9642C166.094 76.1345 166.016 76.2694 165.902 76.3688C165.775 76.4682 165.633 76.5179 165.476 76.5179C165.306 76.5179 165.178 76.4682 165.093 76.3688Z" fill="white"/>
<path d="M171.376 76.3694C171.305 76.27 171.284 76.1351 171.312 75.9648L172.483 70.9814C172.526 70.8111 172.604 70.6762 172.718 70.5768C172.845 70.4774 172.987 70.4277 173.143 70.4277C173.314 70.4277 173.442 70.4774 173.527 70.5768C173.598 70.6762 173.612 70.8111 173.569 70.9814L172.419 75.9648C172.377 76.1351 172.299 76.27 172.185 76.3694C172.057 76.4688 171.908 76.5185 171.738 76.5185C171.568 76.5185 171.447 76.4688 171.376 76.3694Z" fill="white"/>
<path d="M182.301 70.4277C182.443 70.4277 182.556 70.4703 182.642 70.5555C182.741 70.6549 182.769 70.7685 182.727 70.8963C182.713 70.9672 182.684 71.0382 182.642 71.1092L179.085 76.1777C179.014 76.2913 178.922 76.3765 178.808 76.4333C178.68 76.4901 178.56 76.5185 178.446 76.5185C178.333 76.5185 178.226 76.4901 178.127 76.4333C178.042 76.3765 177.985 76.2913 177.956 76.1777L176.785 71.1092C176.771 71.0382 176.771 70.9743 176.785 70.9175C176.813 70.7756 176.899 70.6549 177.041 70.5555C177.168 70.4703 177.31 70.4277 177.467 70.4277C177.566 70.4277 177.651 70.449 177.722 70.4916C177.793 70.5484 177.836 70.6194 177.85 70.7046L178.808 75.0703L181.768 70.7046C181.91 70.52 182.088 70.4277 182.301 70.4277Z" fill="white"/>
<path d="M184.792 76.3694C184.707 76.27 184.686 76.1351 184.728 75.9648L185.9 70.9814C185.928 70.8111 186.006 70.6762 186.134 70.5768C186.262 70.4774 186.404 70.4277 186.56 70.4277C186.73 70.4277 186.858 70.4774 186.943 70.5768C187.014 70.6762 187.028 70.8111 186.986 70.9814L185.836 75.9648C185.793 76.1351 185.708 76.27 185.58 76.3694C185.467 76.4688 185.325 76.5185 185.154 76.5185C184.984 76.5185 184.863 76.4688 184.792 76.3694Z" fill="white"/>
<path d="M191.053 76.3688C190.982 76.2694 190.968 76.1345 191.01 75.9642L192.075 71.3855H190.521C190.18 71.3855 190.045 71.2293 190.116 70.9169C190.187 70.6188 190.393 70.4697 190.734 70.4697H194.929C195.27 70.4697 195.405 70.6188 195.334 70.9169C195.263 71.2293 195.057 71.3855 194.716 71.3855H193.183L192.097 75.9642C192.068 76.1345 191.99 76.2694 191.862 76.3688C191.735 76.4682 191.593 76.5179 191.436 76.5179C191.266 76.5179 191.138 76.4682 191.053 76.3688Z" fill="white"/>
<path d="M197.336 76.3477C197.265 76.2484 197.251 76.1206 197.293 75.9644L198.443 71.0024C198.486 70.832 198.564 70.7042 198.678 70.619C198.791 70.5196 198.926 70.47 199.082 70.47H202.17C202.327 70.47 202.44 70.5055 202.511 70.5764C202.596 70.6616 202.618 70.7681 202.575 70.8959C202.547 71.0379 202.476 71.1514 202.362 71.2366C202.263 71.3076 202.128 71.3431 201.957 71.3431H199.423L199.04 72.9829H201.404C201.574 72.9829 201.695 73.0255 201.766 73.1107C201.837 73.1817 201.858 73.2882 201.83 73.4301C201.801 73.5579 201.73 73.6644 201.617 73.7496C201.503 73.8206 201.368 73.8561 201.212 73.8561H198.848L198.443 75.6024H200.978C201.134 75.6024 201.248 75.645 201.318 75.7301C201.389 75.8011 201.411 75.9076 201.382 76.0496C201.354 76.1916 201.283 76.298 201.169 76.369C201.07 76.44 200.935 76.4755 200.765 76.4755H197.698C197.528 76.4755 197.407 76.4329 197.336 76.3477ZM200.807 70.0014C200.736 70.0014 200.68 69.9802 200.637 69.9376C200.609 69.8808 200.602 69.824 200.616 69.7672C200.63 69.7104 200.673 69.6465 200.743 69.5755L201.702 68.7876C201.844 68.674 201.979 68.6172 202.106 68.6172C202.22 68.6172 202.312 68.6527 202.383 68.7237C202.44 68.8089 202.454 68.9082 202.426 69.0218C202.412 69.0928 202.376 69.1638 202.319 69.2348C202.248 69.3058 202.156 69.3626 202.043 69.4052L200.956 69.9801C200.914 69.9943 200.864 70.0014 200.807 70.0014Z" fill="white"/>
</svg>
