<svg width="248" height="100" viewBox="0 0 248 100" fill="none" xmlns="http://www.w3.org/2000/svg">
<rect width="248" height="100" fill="white" fill-opacity="0.01"/>
<path d="M57.5532 61.7182C57.5068 59.4941 56.9728 59.0483 55.9095 59.4941C53.9083 60.3391 51.7307 63.1436 46.4792 63.1436C39.273 63.1436 33 56.1138 33 46.6417C33 37.8336 39.273 30.762 46.4792 30.762C51.6842 30.762 53.5972 33.9193 55.1527 33.9193C56.3553 33.9193 56.7546 33.6082 56.7082 32.3174C56.7082 31.8299 57.4186 31.8717 57.4186 32.3174C57.1957 35.2519 57.1539 37.9682 57.4186 41.302C57.465 41.9242 56.75 41.9242 56.75 41.302C56.75 36.3663 52.6129 31.4724 46.4746 31.4724C38.869 31.4724 37.8475 40.9909 37.8475 46.6417C37.8475 52.9147 38.869 62.4332 46.4328 62.4332C52.7057 62.4332 56.8428 58.0315 57.5532 52.1578C57.6415 51.5774 58.2636 51.6239 58.2219 52.1578C58.0454 55.3616 58.0454 58.2961 58.2219 61.7228C58.2636 62.2103 57.5997 62.2103 57.5532 61.7182Z" fill="#FF4235"/>
<path d="M73.3449 62.7439C72.6763 62.7439 72.6763 61.9453 73.3449 62.0753C74.2364 62.1635 74.9468 62.1218 75.7036 62.0289C76.2376 61.9825 76.2376 61.8524 76.2376 61.6296V48.819C76.2376 46.372 75.3461 45.6152 73.9671 45.6152C70.4104 45.6616 69.0314 48.7308 67.5177 50.6856V61.5367C67.5177 61.8014 67.6523 61.9825 68.0052 62.0242C68.8503 62.1125 69.4725 62.1125 70.1829 62.0242C70.8933 61.936 70.8515 62.7347 70.1829 62.7347C67.1137 62.6464 64.3139 62.6464 61.1519 62.7347C60.4832 62.7347 60.4832 61.936 61.1519 62.0242C61.9969 62.1125 62.6655 62.1125 63.4224 62.0242C63.9099 61.9778 63.9099 61.8478 63.9099 61.6249V33.0321C63.9099 32.5864 63.7753 32.2753 63.1995 32.2335C62.6191 32.1871 62.1316 32.1871 61.5558 32.2335C60.7108 32.2799 60.7108 31.4766 61.5558 31.5231C62.4473 31.5695 63.2924 31.6113 64.091 31.5695C64.8478 31.5231 66.004 31.212 66.8026 30.548C67.4248 30.014 67.513 29.9258 67.513 30.5944V49.3669C67.513 49.6316 67.5595 49.4551 67.6895 49.2787C69.2032 47.101 71.2462 44.8769 74.7193 44.9187C79.3021 44.9651 79.7897 47.2775 79.7897 49.9009V61.5553C79.7897 61.8199 79.9243 62.001 80.2772 62.0428C81.1223 62.131 81.9673 62.131 82.7242 62.0428C83.3928 61.9546 83.3463 62.7532 82.7242 62.7532C79.6596 62.6557 76.5487 62.6557 73.3449 62.7439Z" fill="#FF4235"/>
<path d="M98.8687 63.1895C96.8211 63.1895 95.442 62.1216 95.131 60.5661C95.131 60.4779 95.0427 60.4779 94.9963 60.5661C94.1512 62.0334 92.4147 63.1895 90.1024 63.1895C86.7686 63.1895 84.7627 61.5876 84.7627 58.6949C84.7627 54.4696 90.7246 53.0442 94.2348 52.9559C94.9034 52.9559 95.0334 52.8677 95.0334 52.6913V47.6627C95.0334 46.1072 94.2348 45.3504 92.8976 45.3504C90.9846 45.3504 88.7605 45.7961 88.7605 47.1287C88.7605 48.1084 90.1859 47.1752 90.1859 49.0881C90.1859 50.0679 89.2945 50.7318 88.1847 50.8665C87.1168 51.0011 86.2299 49.8868 86.3182 48.5077C86.4528 46.5948 89.3873 44.77 93.1251 44.6818C96.1942 44.6353 98.6412 46.5065 98.6412 49.441V60.385C98.6412 61.2301 98.7759 62.2098 99.932 62.2098C100.512 62.2098 101 62.0752 101.265 61.6759C101.664 61.1419 102.156 61.5876 101.71 62.0752C101.005 62.6556 100.16 63.1895 98.8687 63.1895ZM95.0474 53.8474C95.0474 53.6246 94.9127 53.5363 94.337 53.5828C92.2475 53.7174 88.598 54.2514 88.598 58.0309C88.598 60.3897 88.9973 62.1216 91.7136 62.1216C93.3155 62.1216 94.7363 60.1204 95.0474 59.6746V53.8474Z" fill="#FF4235"/>
<path d="M102.611 62.7855C101.901 62.7855 101.901 61.9869 102.611 62.0751C103.456 62.1633 104.078 62.1633 104.881 62.0751C105.369 62.0287 105.369 61.8987 105.369 61.6758V32.939C105.369 32.4933 105.193 32.1822 104.612 32.1404C103.99 32.094 103.544 32.094 102.922 32.1404C102.123 32.1868 102.123 31.3836 102.922 31.43C103.855 31.4764 104.7 31.5182 105.457 31.4764C106.214 31.43 107.37 31.1189 108.169 30.4549C108.837 29.921 108.926 29.8327 108.926 30.3203V61.5876C108.926 61.8522 109.102 62.0333 109.413 62.0751C110.258 62.1633 110.927 62.1633 111.637 62.0751C112.348 61.9869 112.306 62.7855 111.637 62.7855C108.568 62.6973 105.768 62.6973 102.611 62.7855Z" fill="#FF4235"/>
<path d="M113.417 62.7855C112.706 62.7855 112.706 61.9869 113.417 62.0751C114.262 62.1633 114.884 62.1633 115.687 62.0751C116.175 62.0287 116.175 61.8987 116.175 61.6758V32.939C116.175 32.4933 115.998 32.1822 115.418 32.1404C114.796 32.094 114.35 32.094 113.728 32.1404C112.929 32.1868 112.929 31.3836 113.728 31.43C114.661 31.4764 115.506 31.5182 116.263 31.4764C117.02 31.43 118.176 31.1189 118.975 30.4549C119.643 29.921 119.731 29.8327 119.731 30.3203V61.5876C119.731 61.8522 119.908 62.0333 120.219 62.0751C121.064 62.1633 121.733 62.1633 122.443 62.0751C123.153 61.9869 123.112 62.7855 122.443 62.7855C119.378 62.6973 116.579 62.6973 113.417 62.7855Z" fill="#FF4235"/>
<path d="M133.122 63.1897C128.098 63.1897 124.583 59.4102 124.583 53.894C124.583 49.8452 127.917 44.733 132.588 44.6402C139.525 44.4637 140.24 50.6902 140.24 52.4221C140.24 52.6868 139.882 52.9097 139.441 52.9097H128.943C128.808 52.9097 128.72 52.9979 128.72 53.1326V56.2017C128.72 59.1826 129.078 62.5165 133.122 62.5165C136.679 62.5165 139.525 60.2041 140.328 57.0468C140.375 56.601 141.085 56.5592 140.997 57.0468C139.929 60.6081 137.036 63.1897 133.122 63.1897ZM136.149 51.0431C136.149 48.3733 135.792 45.2159 132.593 45.3041C129.612 45.3923 128.725 48.3733 128.725 51.0431V51.8882C128.725 52.0646 128.771 52.2457 128.989 52.2457H135.615C136.015 52.2457 136.149 51.8 136.149 51.6653V51.0431Z" fill="#FF4235"/>
<path d="M154.206 62.7858C153.496 62.7858 153.496 61.9872 154.206 62.0754C155.051 62.1636 155.673 62.1636 156.477 62.0754C156.964 62.029 156.964 61.899 156.964 61.6761V48.8655C156.964 46.6878 156.296 45.5735 154.917 45.5735C151.894 45.5735 149.489 48.2433 148.732 49.7524V61.5832C148.732 61.8479 148.82 62.029 149.178 62.0708C150.023 62.159 150.645 62.159 151.355 62.0708C152.066 61.9825 152.024 62.7812 151.355 62.7812C148.286 62.693 145.486 62.693 142.324 62.7812C141.656 62.7812 141.656 61.9825 142.324 62.0708C143.169 62.159 143.838 62.159 144.595 62.0708C145.082 62.0243 145.082 61.8943 145.082 61.6714V47.3983C145.082 46.9107 144.906 46.5996 144.325 46.5532C143.745 46.5068 143.257 46.5068 142.682 46.5532C141.837 46.5996 141.837 45.7964 142.682 45.8428C143.573 45.8892 144.195 45.8892 144.952 45.8428C145.751 45.7964 146.865 45.4435 147.71 44.8631C148.291 44.4638 148.379 44.4173 148.467 44.9977C148.69 46.3303 148.732 47.6211 148.69 49.0466L148.825 48.6008C149.934 46.8643 152.381 44.8631 155.098 44.8631C159.68 44.8631 160.567 47.31 160.567 49.9334V61.6297C160.567 61.8943 160.702 62.029 161.013 62.0754C161.905 62.1636 162.527 62.1636 163.237 62.0754C163.948 61.9872 163.906 62.7858 163.237 62.7858C160.163 62.6976 157.364 62.6976 154.206 62.7858Z" fill="#FF4235"/>
<path d="M183.115 48.6427C182.27 48.6427 181.647 47.9741 181.647 47.2637C181.647 46.284 181.912 46.0193 182.181 45.75C181.29 45.7964 180.222 46.5486 179.6 47.4401C180.579 48.5081 181.378 50.2864 181.378 52.023C181.378 55.8025 177.464 58.7417 173.995 58.7417C172.082 58.7417 171.149 58.1195 170.662 57.8966C168.526 57.8084 166.747 58.3424 166.659 60.0325C166.613 61.1422 167.551 61.769 168.572 61.8108C172.087 61.9873 175.198 61.9455 178.536 61.8108C181.517 61.6762 183.43 63.5892 183.519 67.5034C183.607 72.6202 178.583 76.1769 173.42 76.1769C169.505 76.1769 165.192 74.7096 165.192 70.4843C165.192 68.0373 167.37 65.8133 169.464 65.3675V65.2793C167.105 65.2793 165.907 63.5892 165.995 61.1886C166.083 58.5188 167.374 57.3209 169.956 57.4509V57.3626C167.955 56.0718 166.622 54.6046 166.622 52.1576C166.622 48.1087 170.049 44.9978 174.005 44.9978C176.094 44.9978 177.965 45.6664 179.21 46.999C180.008 46.0657 181.123 44.9978 182.59 44.9978C183.881 44.9978 184.86 45.7546 184.86 47.0872C184.847 48.197 184.001 48.6427 183.115 48.6427ZM178.267 65.2329C175.82 65.0982 173.643 65.01 171.107 65.2329C168.795 65.4557 167.24 67.3223 167.24 70.2568C167.24 73.9946 170.309 75.4154 173.643 75.4154C178.002 75.4154 182.581 72.0351 182.85 68.0327C183.026 65.7668 180.445 65.3675 178.267 65.2329ZM173.773 45.7082C170.123 45.8429 170.258 49.5342 170.346 51.9812C170.434 54.9157 170.569 58.073 174.214 57.943C177.863 57.8084 177.729 54.9621 177.64 51.7165C177.51 48.0623 177.376 45.5736 173.773 45.7082Z" fill="#FF4235"/>
<path d="M194.054 63.1897C189.03 63.1897 185.515 59.4102 185.515 53.894C185.515 49.8452 188.849 44.733 193.52 44.6402C200.457 44.4637 201.172 50.6902 201.172 52.4221C201.172 52.6868 200.814 52.9097 200.373 52.9097H189.875C189.74 52.9097 189.652 52.9979 189.652 53.1326V56.2017C189.652 59.1826 190.01 62.5165 194.054 62.5165C197.611 62.5165 200.457 60.2041 201.26 57.0468C201.307 56.601 202.017 56.5592 201.929 57.0468C200.861 60.6081 197.968 63.1897 194.054 63.1897ZM197.081 51.0431C197.081 48.3733 196.724 45.2159 193.525 45.3041C190.544 45.3923 189.657 48.3733 189.657 51.0431V51.8882C189.657 52.0646 189.703 52.2457 189.922 52.2457H196.547C196.947 52.2457 197.081 51.8 197.081 51.6653V51.0431Z" fill="#FF4235"/>
<path d="M214.392 43.7673C213.403 44.1341 212.711 43.5119 212.455 42.7457C212.126 41.7939 212.53 41.1763 212.822 40.6656C212.748 40.2988 212.492 40.0434 211.508 40.0434C210.264 40.0434 209.061 40.6656 209.061 42.964C209.061 45.996 213.625 46.0331 213.625 50.6717C213.625 52.9004 211.216 55.4217 208.221 55.496C205.518 55.5703 204.13 53.9637 203.694 52.645C203.294 51.5864 203.656 50.3095 204.678 49.9056C205.625 49.5387 206.466 50.2352 206.721 50.9271C207.269 52.6079 205.662 52.7193 205.992 53.7037C206.141 54.1402 207.417 54.7623 208.55 54.4698C209.683 54.2144 211.178 53.7408 211.178 51.8743C211.178 48.8423 207.014 48.1133 207.014 44.3152C207.014 42.3789 208.546 39.0916 211.652 39.0916C213.918 39.0916 214.865 39.8205 215.45 41.4642C215.854 42.56 215.269 43.4376 214.392 43.7673Z" fill="#FF4235"/>
</svg>
