<svg width="248" height="100" viewBox="0 0 248 100" fill="none" xmlns="http://www.w3.org/2000/svg">
<rect width="248" height="100" fill="white" fill-opacity="0.01"/>
<path fill-rule="evenodd" clip-rule="evenodd" d="M32 40.5149H44.3089V44.6573H42.8295C42.0602 44.6573 41.8826 44.9532 41.8826 45.6633V55.1317C41.8826 55.6052 42.2969 56.0194 42.7703 56.0194H42.8295H46.3801C46.9127 56.0786 47.3861 55.6052 47.4453 55.0726V55.0134V51.5811H52.3571V60.1026H32V55.9602H33.4203C34.0712 55.9602 34.4263 55.7235 34.4263 55.0726V45.6633C34.4263 45.0716 34.3671 44.7165 33.5386 44.7165H32V40.5149ZM54.4874 40.5149H74.7853V46.8469H69.6961V45.8409C69.6961 45.1899 69.4002 44.7165 68.3941 44.7165H63.9558V48.2671H68.7492V52.0545H64.015V56.0194H68.6309C69.1635 56.0786 69.6369 55.6643 69.6961 55.0726C69.6961 55.0134 69.6961 54.9542 69.6961 54.895V53.889H74.7853V60.1618H54.4874V56.0194H55.671C56.2628 56.0194 56.6178 55.7827 56.6178 55.1909V45.6633C56.6178 45.0716 56.5587 44.6573 55.7302 44.6573H54.5466L54.4874 40.5149ZM84.8455 40.5149H105.558V46.8469H100.528V45.8409C100.587 45.3083 100.172 44.8348 99.5807 44.7757C99.5215 44.7757 99.4623 44.7757 99.4032 44.7757H94.7873V48.3263H99.0481V52.0545H94.7873V54.895C94.7873 55.7235 95.1424 56.0194 96.1484 56.0194H97.7462V60.1618H84.8455V56.0194H86.5616C86.9759 56.0786 87.3309 55.7235 87.3901 55.3093C87.3901 55.2501 87.3901 55.2501 87.3901 55.1909V45.6633C87.3901 45.0716 87.3309 44.6573 86.5025 44.6573H84.8455V40.5149ZM117.334 45.6633C117.334 44.9532 117.571 44.7165 118.281 44.7165H119.819V40.5741H107.57V44.7165H109.108C109.937 44.7165 110.055 45.0716 110.055 45.6633V55.1317C110.055 55.8419 109.641 56.0194 109.108 56.0194H107.57V60.1618H119.819V56.0194H118.34C117.748 56.0194 117.334 55.7827 117.334 55.1317V45.6633ZM137.869 40.5149H142.188V47.4387H137.809C136.922 45.6042 135.087 44.4206 133.075 44.4206C130.412 44.4206 128.341 46.3143 128.341 49.8649C128.341 55.7827 131.655 56.3745 133.075 56.3745C136.034 56.3745 136.685 54.2441 136.685 53.4156H133.963V49.8058H143.372L143.313 52.2912C143.313 52.8238 142.78 60.1026 132.247 60.1026C124.672 60.1026 120.766 56.1377 120.766 49.9241C120.766 45.7817 124.021 40.5149 131.714 40.5149C136.034 40.5149 137.869 41.9943 137.869 41.9943V40.5149ZM166.333 55.9602C165.445 55.9602 165.209 55.1909 164.735 54.0074L159.527 40.5149H152.012L146.686 55.0134C146.449 55.6052 145.798 56.0194 145.147 55.9602H144.082V60.1026H153.314V56.1377H152.012C151.42 56.1377 151.361 55.7235 151.539 55.1317L152.13 53.3564H157.693L158.285 55.2501C158.521 55.901 157.811 56.1377 157.397 56.1377H156.273V60.1026H167.339V55.9602H166.333ZM153.018 50.6934L154.912 44.9532H154.971L156.864 50.6934H153.018ZM192.371 55.9602C191.602 55.9602 191.483 55.6052 191.128 55.0726C190.714 54.5991 188.406 50.9301 188.406 50.9301C188.406 50.9301 191.838 49.9833 191.838 46.3143C191.838 42.6453 188.761 41.4026 187.459 40.9883C186.157 40.6924 183.317 40.5149 182.607 40.5149H169.233V44.6573H170.534C171.363 44.6573 171.481 45.1307 171.481 45.6633V54.9542C171.481 55.3684 171.422 55.9602 170.534 55.9602H169.233V60.1026H181.009V55.9602H179.825C178.997 55.9602 178.879 55.4868 178.879 55.0134V51.877H181.541L186.276 60.1618H193.732V55.9602H192.371ZM181.541 48.4447H178.879V44.4798H181.837C182.607 44.4798 184.145 44.7757 184.145 46.551C184.145 47.8529 183.139 48.5039 181.541 48.4447ZM204.502 40.5149C196.336 40.5149 193.436 45.7225 193.436 50.1608C193.436 55.9602 197.579 60.1026 204.502 60.1026C210.775 60.1026 215.628 57.0254 215.628 50.3975C215.628 44.0655 210.894 40.5149 204.502 40.5149ZM204.798 56.3153C203.023 56.3153 201.07 55.2501 201.07 49.8058C201.07 46.4326 202.372 44.3614 204.621 44.3614C206.692 44.3614 208.171 45.7817 208.171 50.1608C208.171 54.9542 206.633 56.3153 204.798 56.3153Z" fill="#FF4235"/>
<path fill-rule="evenodd" clip-rule="evenodd" d="M101.361 53.9187C103.532 55.7509 105.5 57.8545 107.129 60.1618L106.247 59.4832C104.007 57.0402 103.872 57.1081 101.972 55.4116C100.75 54.3258 99.3928 53.3758 97.8999 52.6293L95.9999 51.815V50.7971H98.3071C99.1214 51.7472 100.275 52.9008 101.361 53.9187ZM86.7709 37.6324C91.114 39.4646 92.8783 43.7397 92.8783 43.7397V50.7971C92.8783 50.7971 89.3496 50.0507 84.8709 46.997L86.9745 47.1327C86.9745 47.1327 82.0886 44.6219 80.5957 42.8575C81.2743 43.129 81.9529 43.2647 82.6315 43.4004C82.6315 43.4004 78.9671 41.4325 77.6777 36.0716C77.9492 36.4787 78.3563 36.7502 78.7635 36.9538C78.2206 35.3251 77.9492 33.6965 77.8813 32C77.8813 32 81.9529 36.6823 86.7031 38.1074C86.8388 38.1074 86.7031 37.6324 86.7709 37.6324Z" fill="#FF4235"/>
</svg>
