<svg width="248" height="100" viewBox="0 0 248 100" fill="none" xmlns="http://www.w3.org/2000/svg">
<rect width="248" height="100" fill="white" fill-opacity="0.01"/>
<path d="M56 27.1402H63.3832V42.9112H75.0187V49.2197H56V27.1402ZM86.7944 41.0187L88.8038 35.6682L90.8131 41.0187H86.7944ZM75.9066 49.2197H83.7804L84.9253 46.2524H92.6589L93.8272 49.2197H101.841L92.5421 27H85.229L75.9066 49.2197ZM61.8411 72.1403H69.2243V56.3225H75.0421V50.0842H56V56.3225H61.8178V72.1403H61.8411ZM83.243 60.5748V56.2524H86.4673C88.173 56.2524 89.2711 56.9533 89.2711 58.3552V58.4253C89.2711 59.7804 88.1963 60.5748 86.444 60.5748H83.243ZM75.8598 72.1403H83.243V65.8318H84.7617H84.8318L88.9907 72.1403H97.4019L92.2617 64.6402C94.9487 63.3552 96.6075 61.1122 96.6075 57.8879V57.8178C96.6075 55.5515 95.9066 53.9159 94.5982 52.5842C93.0561 51.0421 90.5561 50.0608 86.6543 50.0608H75.8598V72.1403ZM113.22 66.5561V63.2851H116.935C118.547 63.2851 119.341 63.9393 119.341 64.8973V64.9674C119.341 65.9253 118.523 66.5795 116.911 66.5795H113.22V66.5561ZM113.22 58.729V55.6449H116.397C117.963 55.6449 118.757 56.1823 118.757 57.1636V57.2337C118.757 58.215 118.009 58.7524 116.421 58.7524H113.22V58.729ZM106.023 72.1403H118.266C123.851 72.1403 126.748 69.5468 126.748 66.0188V65.9487C126.748 62.9346 124.925 61.4159 122.075 60.5982C124.435 59.7804 126.023 58.1683 126.023 55.5514V55.4814C126.023 53.9627 125.463 52.8412 124.668 52.0468C123.383 50.7617 121.444 50.0608 118.383 50.0608H106.023V72.1403ZM127.028 62.2337C127.028 69.5468 131.281 72.5842 137.869 72.5842C144.458 72.5842 148.851 69.6169 148.851 62.0935V50.0842H141.351V62.3272C141.351 65.0141 139.925 66.0889 137.939 66.0889C135.953 66.0889 134.528 64.9206 134.528 62.187V50.1075H127.028V62.2337ZM149.738 72.1403H157.052V61.9533L165.253 72.1403H171.818V50.0608H164.505V59.8038L156.631 50.0608H149.715V72.1403H149.738ZM172.659 72.1403H191.631V66.0889H179.902V63.6823H190.696V58.3552H179.902V56.1122H191.468V50.0608H172.636V72.1403H172.659ZM97.6122 72.1403H105.159V50.0608H97.6122V72.1403Z" fill="#FF4235"/>
</svg>
