<svg width="248" height="100" viewBox="0 0 248 100" fill="none" xmlns="http://www.w3.org/2000/svg">
<rect width="248" height="100" fill="white" fill-opacity="0.01"/>
<path d="M163.775 10H84V89.7749H163.775V10Z" fill="#FF4235"/>
<path d="M103.018 42.309H98.9176V38.0809H103.305C104.965 38.0809 105.762 38.8148 105.762 40.1391C105.746 41.8941 104.486 42.309 103.018 42.309ZM98.9017 30.4065H102.603C104.039 30.4065 104.996 30.8214 104.996 31.9701C104.996 33.438 104.071 33.8528 102.603 33.8528H98.9017V30.4065ZM145.602 25.0138L142.363 38.3681H142.299L139.06 25.0138H112.304V38.3521C111.618 36.629 110.246 35.6557 108.81 35.1452C110.501 34.2198 111.618 32.9912 111.618 30.6937C111.618 28.3643 110.341 24.9978 104.374 24.9978H91.9453V47.6858H104.821C108.06 47.6858 111.219 46.1222 112.32 43.1227V47.6858H119.308V39.0382H125.69V33.8209H119.292V30.3906H129.136V47.6858H135.742V33.1348H135.806L139.746 47.6858H144.932L148.873 33.1348H148.936V47.6858H155.542V25.0138H145.602Z" fill="white"/>
<path d="M91.8496 50.3342H95.3437C96.2213 50.3342 97.019 50.4619 97.753 50.7012C98.4709 50.9405 99.0613 51.3713 99.508 51.9616C99.9547 52.552 100.162 53.3338 100.162 54.307C100.162 55.041 100.019 55.6951 99.7314 56.2376C99.4442 56.796 99.0453 57.2108 98.5507 57.4821V57.5299C98.8379 57.6735 99.0932 57.865 99.3484 58.1043C99.5878 58.3436 99.7952 58.6149 99.9707 58.9499C100.146 59.2531 100.274 59.62 100.386 60.0029C100.481 60.4018 100.529 60.8166 100.529 61.2634C100.529 62.5238 100.162 63.545 99.4282 64.3108C98.6783 65.0926 97.5615 65.4755 96.0617 65.4755H91.8656V50.3342H91.8496ZM94.913 53.3019V56.3652H95.6788C96.1575 56.3652 96.5085 56.2216 96.7478 55.9504C96.9871 55.6791 97.1148 55.3122 97.1148 54.8016C97.1148 54.2751 96.9712 53.8762 96.668 53.6529C96.3649 53.4295 95.9979 53.3178 95.5831 53.3178H94.913V53.3019ZM94.913 59.3328V62.4919H95.7267C96.8914 62.4919 97.4817 61.9654 97.4817 60.9443C97.4817 60.2901 97.3222 59.8594 97.019 59.6519C96.7159 59.4445 96.2691 59.3328 95.6948 59.3328C95.6788 59.3328 94.913 59.3328 94.913 59.3328Z" fill="white"/>
<path d="M110.724 50.3343V60.2264C110.724 61.3752 110.501 62.3644 110.07 63.21C109.639 64.0715 109.033 64.7098 108.267 65.1565C107.501 65.6032 106.608 65.8266 105.618 65.8266C104.693 65.8266 103.863 65.6351 103.177 65.2522C102.475 64.8693 101.933 64.279 101.55 63.4812C101.151 62.6835 100.959 61.6943 100.959 60.4817V50.3184H103.879V59.4127C103.879 60.003 103.927 60.5136 104.039 60.9444C104.15 61.3911 104.342 61.7421 104.613 61.9974C104.868 62.2527 105.235 62.3963 105.698 62.3963C106.56 62.3963 107.134 62.0772 107.405 61.423C107.677 60.7689 107.804 59.8435 107.804 58.6149V50.3343H110.724Z" fill="white"/>
<path d="M117.186 54.3389C116.835 53.9082 116.532 53.621 116.277 53.4455C116.006 53.27 115.671 53.1742 115.304 53.1742C115.032 53.1742 114.777 53.2859 114.538 53.5093C114.283 53.7327 114.155 54.0199 114.155 54.3868C114.155 54.8974 114.426 55.2962 114.985 55.5994C115.543 55.9025 116.117 56.2057 116.708 56.4929C117.298 56.796 117.809 57.2587 118.255 57.9129C118.686 58.567 118.894 59.5243 118.894 60.8007C118.894 62.4281 118.511 63.6726 117.745 64.5342C116.979 65.4117 116.022 65.8425 114.841 65.8425C114.155 65.8425 113.501 65.6989 112.863 65.3958C112.224 65.1086 111.65 64.6459 111.171 64.0555L112.751 61.1996C113.261 62.0133 113.916 62.4122 114.745 62.4122C115.08 62.4122 115.384 62.3005 115.687 62.0612C115.99 61.8378 116.133 61.5027 116.133 61.056C116.133 60.5295 115.862 60.1306 115.304 59.8115C115.048 59.6839 114.777 59.5243 114.442 59.3488L114.011 59.1254L113.565 58.8861C112.974 58.567 112.464 58.1043 112.033 57.4661C111.602 56.8439 111.395 55.9025 111.395 54.658C111.395 53.7007 111.586 52.8711 111.953 52.1531C112.304 51.4511 112.783 50.9086 113.389 50.5257C113.964 50.1587 114.586 49.9673 115.256 49.9673C115.878 49.9673 116.468 50.1109 117.059 50.414C117.665 50.7331 118.192 51.1639 118.638 51.7223L117.186 54.3389Z" fill="white"/>
<path d="M119.292 51.6425L122.212 50.031V65.4754L119.292 65.4595V51.6425Z" fill="white"/>
<path d="M132.742 65.4917L126.056 58.2641L126.072 65.4438H123.137V50.1111L129.822 57.3227V50.3345L132.742 50.3664V65.4917Z" fill="white"/>
<path d="M139.475 65.4755H133.54V50.3342H140.049V53.5412H136.443V56.1738H139.459V59.3647H136.443V62.2845H139.459V65.4755H139.475Z" fill="white"/>
<path d="M146.288 54.3389C145.937 53.9082 145.633 53.621 145.378 53.4455C145.107 53.27 144.772 53.1742 144.405 53.1742C144.134 53.1742 143.878 53.2859 143.639 53.5093C143.384 53.7327 143.256 54.0199 143.256 54.3868C143.256 54.8974 143.527 55.2962 144.086 55.5994C144.644 55.9025 145.219 56.2057 145.809 56.4929C146.399 56.796 146.91 57.2587 147.357 57.9129C147.787 58.567 148.011 59.5243 148.011 60.8007C148.011 62.4281 147.628 63.6726 146.862 64.5342C146.096 65.4117 145.139 65.8425 143.958 65.8425C143.272 65.8425 142.618 65.6989 141.98 65.3958C141.342 65.1086 140.767 64.6459 140.289 64.0555L141.868 61.1996C142.379 62.0133 143.033 62.4122 143.862 62.4122C144.198 62.4122 144.501 62.3005 144.804 62.0612C145.107 61.8378 145.251 61.5027 145.251 61.056C145.251 60.5295 144.979 60.1306 144.421 59.8115C144.182 59.6839 143.894 59.5243 143.559 59.3488L143.129 59.1254L142.682 58.8861C142.076 58.567 141.565 58.1043 141.15 57.4661C140.719 56.8439 140.512 55.9025 140.512 54.658C140.512 53.7007 140.687 52.8711 141.07 52.1531C141.437 51.4511 141.9 50.9086 142.506 50.5257C143.081 50.1587 143.719 49.9673 144.373 49.9673C144.979 49.9673 145.586 50.1109 146.176 50.414C146.782 50.7331 147.309 51.1639 147.756 51.7223L146.288 54.3389Z" fill="white"/>
<path d="M153.914 54.3389C153.563 53.9082 153.26 53.621 153.005 53.4455C152.734 53.27 152.399 53.1742 152.032 53.1742C151.76 53.1742 151.505 53.2859 151.266 53.5093C151.01 53.7327 150.883 54.0199 150.883 54.3868C150.883 54.8974 151.154 55.2962 151.712 55.5994C152.271 55.9025 152.845 56.2057 153.436 56.4929C154.026 56.796 154.537 57.2587 154.967 57.9129C155.398 58.567 155.606 59.5243 155.606 60.8007C155.606 62.4281 155.223 63.6726 154.457 64.5342C153.691 65.4117 152.734 65.8425 151.553 65.8425C150.867 65.8425 150.213 65.6989 149.575 65.3958C148.936 65.1086 148.362 64.6459 147.883 64.0555L149.463 61.1996C149.973 62.0133 150.628 62.4122 151.457 62.4122C151.792 62.4122 152.095 62.3005 152.399 62.0612C152.702 61.8378 152.845 61.5027 152.845 61.056C152.845 60.5295 152.558 60.1306 152.016 59.8115C151.76 59.6839 151.489 59.5243 151.154 59.3488L150.723 59.1254L150.277 58.8861C149.67 58.567 149.16 58.1043 148.745 57.4661C148.314 56.8439 148.107 55.9025 148.107 54.658C148.107 53.7007 148.282 52.8711 148.665 52.1531C149.032 51.4511 149.495 50.9086 150.101 50.5257C150.691 50.1587 151.314 49.9673 151.968 49.9673C152.59 49.9673 153.18 50.1109 153.787 50.414C154.393 50.7331 154.919 51.1639 155.366 51.7223L153.914 54.3389Z" fill="white"/>
<path d="M147.276 65.3318C147.26 65.3318 138.517 72.4956 138.517 72.4956L130.013 67.0071L120.232 73.6603L112.048 70.4374L91.1465 83.2173V83.313H96.4435L112.478 73.9156L120.567 77.298L129.997 70.8682L138.628 76.4365L150.116 66.8794C148.329 66.3529 148.042 66.0817 147.276 65.3318Z" fill="white"/>
</svg>
