<svg width="246" height="193" viewBox="0 0 246 193" fill="none" xmlns="http://www.w3.org/2000/svg">
<path d="M187.102 180.447L187.114 180.436L187.127 180.424C200.416 167.894 211.263 155.341 219.65 142.762C228.045 130.55 234.161 117.749 237.986 104.364C241.809 91.3643 243.714 77.2407 243.714 62.0023C243.714 45.0903 239.095 30.7693 229.786 19.1338L229.778 19.1243L229.771 19.115C220.36 7.74374 206.673 2.14288 188.957 2.14288C171.285 2.14288 157.268 7.14555 147.101 17.3123L147.092 17.3221L147.082 17.332C136.953 27.8503 131.932 41.4627 131.932 58.0337C131.932 74.9981 137.343 88.6371 148.264 98.7831C155.675 105.926 164.688 110.616 175.255 112.888C174.868 113.651 174.472 114.407 174.067 115.155C168.882 124.412 160.314 134.492 148.287 145.391L148.275 145.402L148.264 145.413C140.924 152.366 137.034 159.528 137.034 166.886C137.034 174.071 139.645 179.957 144.877 184.406C149.745 189.25 156.197 191.413 164.048 191.028C171.705 191.017 179.397 187.381 187.102 180.447ZM56.7054 180.447L56.718 180.436L56.7304 180.424C70.0203 167.894 80.8671 155.341 89.2543 142.762C97.6488 130.55 103.765 117.75 107.59 104.364C111.413 91.3647 113.317 77.2409 113.317 62.0022C113.317 45.0902 108.698 30.7693 99.3898 19.1338L99.3822 19.1243L99.3745 19.1149C89.9639 7.74373 76.2766 2.14287 58.5604 2.14287C40.8888 2.14287 26.8719 7.14553 16.7051 17.3123L16.6954 17.322L16.6858 17.332C6.55707 27.8503 1.53573 41.4627 1.53573 58.0337C1.53573 74.998 6.94703 88.6369 17.8675 98.7829C25.2788 105.926 34.2917 110.616 44.8588 112.888C44.472 113.651 44.0761 114.407 43.6711 115.155C38.4854 124.412 29.918 134.492 17.8911 145.391L17.8791 145.402L17.8674 145.413C10.5279 152.366 6.6382 159.528 6.6382 166.886C6.6382 174.071 9.24835 179.957 14.4805 184.406C19.3492 189.25 25.8002 191.413 33.6518 191.028C41.3087 191.017 49.001 187.381 56.7054 180.447Z" stroke="#E8F4FF" stroke-width="2.92907"/>
</svg>
