<svg width="324" height="317" fill="none" xmlns="http://www.w3.org/2000/svg"><path fill-rule="evenodd" clip-rule="evenodd" d="M199.969 44.19 185.79 16.3c-9.98-19.63-38.022-19.63-48.002 0l-14.179 27.89c-6.075 11.95-19.391 18.363-32.522 15.662l-30.645-6.303c-21.57-4.436-39.054 17.488-29.929 37.53l12.964 28.473c5.555 12.201 2.266 26.61-8.032 35.193L11.41 174.774C-5.507 188.872.733 216.211 22.093 221.572l30.344 7.618c13.003 3.264 22.218 14.819 22.507 28.222l.674 31.278c.474 22.017 25.74 34.184 43.249 20.828l24.874-18.975c10.659-8.131 25.439-8.131 36.098 0l24.875 18.975c17.509 13.356 42.774 1.189 43.248-20.828l.674-31.278c.289-13.403 9.504-24.958 22.507-28.222l30.344-7.618c21.359-5.361 27.599-32.7 10.682-46.798l-24.034-20.029c-10.299-8.583-13.588-22.992-8.033-35.193l12.964-28.473c9.125-20.042-8.359-41.966-29.929-37.53l-30.644 6.303c-13.132 2.7-26.448-3.712-32.523-15.662Zm-12.916-28.53c-10.505-20.664-40.023-20.664-50.528 0l-14.179 27.887a28.342 28.342 0 0 1-30.974 14.917L60.728 52.16c-22.705-4.67-41.11 18.408-31.504 39.505l12.963 28.473a28.343 28.343 0 0 1-7.65 33.517l-24.034 20.029c-17.807 14.84-11.239 43.618 11.244 49.262l30.344 7.617a28.343 28.343 0 0 1 21.435 26.879l.674 31.278c.5 23.175 27.095 35.982 45.525 21.923L144.6 291.67a28.34 28.34 0 0 1 34.378 0l24.875 18.975c18.431 14.058 45.026 1.251 45.525-21.924l.674-31.278a28.343 28.343 0 0 1 21.435-26.879l30.344-7.617c22.483-5.644 29.051-34.422 11.244-49.262l-24.034-20.029c-9.808-8.174-12.941-21.897-7.65-33.517l12.964-28.473c9.605-21.097-8.799-44.175-31.505-39.505l-30.644 6.303a28.342 28.342 0 0 1-30.974-14.917L187.053 15.66Z" fill="#FF4235"/></svg>