<svg width="266" height="271" fill="none" xmlns="http://www.w3.org/2000/svg"><path opacity=".2" fill-rule="evenodd" clip-rule="evenodd" d="m214.958 76.34 5.165-25.62c3.636-18.034-14.735-32.568-31.448-24.88l-23.744 10.922a24.86 24.86 0 0 1-29.425-6.596l-16.809-20.012c-11.832-14.086-34.65-8.784-39.06 9.076l-6.264 25.373A24.86 24.86 0 0 1 49.87 63.496l-26.127.665c-18.39.468-28.472 21.614-17.258 36.197l15.932 20.717a24.86 24.86 0 0 1 .117 30.155l-15.77 20.842c-11.1 14.67-.853 35.736 17.54 36.06l26.131.462a24.86 24.86 0 0 1 23.65 18.709l6.462 25.324c4.548 17.825 27.407 22.949 39.129 8.771l16.653-20.143a24.862 24.862 0 0 1 29.373-6.825l23.828 10.737c16.772 7.558 35.03-7.119 31.253-25.124l-5.365-25.578a24.86 24.86 0 0 1 12.978-27.22l23.251-11.935c16.366-8.401 16.275-31.826-.156-40.1l-23.343-11.753a24.861 24.861 0 0 1-13.19-27.118Zm6.326-25.387c3.827-18.982-15.512-34.281-33.104-26.189l-23.743 10.923a23.677 23.677 0 0 1-28.024-6.282l-16.81-20.012C107.148-5.435 83.129.146 78.488 18.946l-6.265 25.373A23.676 23.676 0 0 1 49.84 62.313l-26.127.665c-19.358.493-29.97 22.75-18.166 38.101l15.932 20.718a23.676 23.676 0 0 1 .111 28.719L5.82 171.357c-11.684 15.442-.898 37.617 18.463 37.959l26.131.461a23.677 23.677 0 0 1 22.523 17.819L79.4 252.92c4.787 18.763 28.849 24.156 41.188 9.232l16.653-20.143a23.676 23.676 0 0 1 27.974-6.499l23.828 10.737c17.655 7.955 36.874-7.495 32.899-26.447l-5.365-25.578a23.677 23.677 0 0 1 12.36-25.924l23.251-11.935c17.227-8.843 17.131-33.501-.165-42.21l-23.343-11.754a23.676 23.676 0 0 1-12.561-25.826l5.165-25.62Z" fill="#FF4235"/></svg>