<svg width="40" height="40" viewBox="0 0 40 40" fill="none" xmlns="http://www.w3.org/2000/svg">
<g clip-path="url(#clip0_1641_28365)">
<path d="M39.4423 10.4695C39.2324 8.71795 37.5818 7.03843 35.8548 6.81342C25.3236 5.5049 14.6744 5.5049 4.14664 6.81342C2.41819 7.03794 0.767569 8.71795 0.557604 10.4695C-0.185868 16.8886 -0.185868 23.1127 0.557604 29.5304C0.767569 31.2819 2.41819 32.963 4.14664 33.1864C14.6744 34.4949 25.324 34.4949 35.8548 33.1864C37.5818 32.9633 39.2324 31.2819 39.4423 29.5304C40.1859 23.1133 40.1859 16.8886 39.4423 10.4695ZM16.6664 26.6678V13.3341L26.6666 20.0012L16.6664 26.6678Z" fill="white"/>
</g>
<defs>
<clipPath id="clip0_1641_28365">
<rect width="40" height="40" fill="white"/>
</clipPath>
</defs>
</svg>
